<?xml version="1.0" encoding="UTF-8"?>
<svg width="302px" height="308px" viewBox="0 0 302 308" version="1.1" xmlns="http://www.w3.org/2000/svg" xmlns:xlink="http://www.w3.org/1999/xlink">
    <title>favicon</title>
    <defs>
        <linearGradient x1="28.2223983%" y1="1.94605556e-14%" x2="50%" y2="100%" id="linearGradient-1">
            <stop stop-color="#FF9090" offset="0%"></stop>
            <stop stop-color="#C570D7" offset="100%"></stop>
            <stop stop-color="#6DF076" offset="100%"></stop>
        </linearGradient>
    </defs>
    <g id="Page-1" stroke="none" stroke-width="1" fill="none" fill-rule="evenodd">
        <path d="M170.513147,178.123509 C199.037862,152.43974 234.710859,146.120658 260.380893,174.630119 C284.239781,201.128098 283.923999,240.949371 260.857661,267.058598 C269.751714,254.04782 268.99567,236.218519 258.021546,224.03052 C245.137346,209.721167 220.539284,206.463329 206.174319,219.397601 C191.809355,232.331873 193.117209,256.560309 206.001408,270.869662 C216.832024,282.89828 234.167592,285.60319 247.951403,278.476899 C219.650261,297.89217 180.662534,293.826152 157.083763,267.639273 C131.413728,239.129812 141.988432,203.807278 170.513147,178.123509 Z M30.2729791,22.1647829 C87.3224091,-29.2027546 214.377447,18.901269 265.700563,75.901364 C312.939341,128.365342 312.765994,206.963902 267.954787,259.195504 C297.507501,220.70963 296.195505,165.220747 262.323095,127.601624 C224.161285,85.2186401 163.079748,88.1371818 121.010924,126.016121 C78.9420999,163.895061 71.8165959,222.390414 109.978406,264.773398 C143.098825,301.55735 196.464824,309.166987 237.488499,285.772865 C181.191812,322.061606 105.331981,313.25849 59.106302,261.919673 C7.78318597,204.919578 -26.7764509,73.5323204 30.2729791,22.1647829 Z" id="Logo" fill="url(#linearGradient-1)" transform="translate(151.0644, 154.0955) rotate(180) translate(-151.0644, -154.0955)"></path>
    </g>
</svg>