<?xml version="1.0" encoding="UTF-8"?>
<svg width="821px" height="563px" viewBox="0 0 821 563" version="1.1" xmlns="http://www.w3.org/2000/svg" xmlns:xlink="http://www.w3.org/1999/xlink">
    <title>Group 2</title>
    <g id="Page-1" stroke="none" stroke-width="1" fill="none" fill-rule="evenodd">
        <g id="Group" transform="translate(0.9394, 1.0728)">
            <line x1="181.820567" y1="289.36724" x2="171.080567" y2="288.87724" id="Path" stroke="#E9EBEE"></line>
            <path d="M171.080567,288.87724 C165.920567,276.95724 162.077234,265.00724 159.550567,253.02724 C155.040567,231.64724 155.610567,208.89724 162.750567,188.81724 C164.543901,183.783907 167.697234,176.963907 172.210567,168.35724 C174.057234,164.83724 175.110567,162.05724 175.370567,160.01724 C176.440567,151.60724 171.640567,144.70724 164.510567,140.69724 C151.130567,133.15724 137.740567,142.87724 129.410567,153.54724 C114.510567,172.61724 107.070567,198.72724 105.970567,222.93724 C104.997234,244.343907 108.077234,265.18724 115.210567,285.46724" id="Path" stroke="#8B8A93"></path>
            <path d="M115.210567,285.46724 C114.990567,286.02724 114.440567,286.28724 113.560567,286.24724 C102.013901,285.673907 74.3939007,284.483907 30.7005674,282.67724 C27.3405674,282.53724 24.767234,282.66724 22.9805674,283.06724 C13.4005674,285.22724 8.20056735,294.68724 9.20056735,304.03724 C9.41390069,306.023907 9.93723402,308.74724 10.7705674,312.20724 C18.057234,342.240573 25.1405674,370.14724 32.0205674,395.92724 C32.6405674,398.253907 33.077234,399.86724 33.3305674,400.76724 C36.2105674,411.080573 38.9705674,421.360573 41.6105674,431.60724 C41.697234,431.960573 41.5639007,432.300573 41.2105674,432.62724" id="Path" stroke="#E9EBEE"></path>
            <path d="M41.2105674,432.62724 L1.12056735,434.03724 C0.512565335,434.058203 0.0260764297,434.549075 0.0105673533,435.15724 L0.00056735332,435.58724 C-0.010851353,436.002578 0.150516905,436.404047 0.446205522,436.695944 C0.741894138,436.987842 1.14541125,437.144017 1.56056735,437.12724 L40.5705674,435.65724" id="Path" stroke="#ADACB1"></path>
            <path d="M40.5705674,435.65724 C41.877234,435.51724 42.7005674,436.270573 43.0405674,437.91724 C43.287234,439.07724 43.4239007,439.933907 43.4505674,440.48724 C43.4685214,440.762436 43.2684849,441.005959 42.9905674,441.04724 C35.7639007,442.033907 28.4605674,443.653907 21.0805674,445.90724 C15.3305674,447.67724 3.25056735,452.01724 4.69056735,459.56724 C5.80056735,465.36724 22.0305674,470.39724 27.2605674,471.72724 C33.2939007,473.26724 41.0405674,474.94724 50.5005674,476.76724 C51.427234,476.94724 52.2039007,477.020573 52.8305674,476.98724 C53.2974232,476.959151 53.7255748,477.240508 53.8805674,477.67724 C56.1205674,484.14724 57.6705674,492.65724 60.0705674,500.18724 C64.077234,512.780573 72.7339007,519.773907 86.0405674,521.16724 C86.4099987,521.199391 86.7073448,521.484169 86.7554101,521.851869 C86.8034754,522.219568 86.5893213,522.571209 86.2405674,522.69724 C85.4805674,522.983907 84.717234,523.170573 83.9505674,523.25724 C75.557234,524.203907 68.0339007,525.383907 61.3805674,526.79724 C56.2105674,527.89724 45.4405674,530.55724 42.4505674,534.76724 C38.9205674,539.74724 45.1105674,542.20724 49.0805674,543.62724 C57.5205674,546.673907 66.9239007,548.93724 77.2905674,550.41724 C97.6705674,553.330573 117.450567,555.43724 136.630567,556.73724 C142.483901,557.130573 149.470567,557.583907 157.590567,558.09724 C167.023901,558.69724 174.013901,559.063907 178.560567,559.19724 C209.240567,560.103907 227.490567,560.593907 233.310567,560.66724 C259.760567,561.00724 284.870567,559.97724 308.820567,558.88724 C340.293901,557.453907 374.877234,554.21724 412.570567,549.17724 C434.657234,546.223907 453.293901,542.680573 468.480567,538.54724 C472.360567,537.48724 477.907234,535.803907 485.120567,533.49724 C490.293901,531.850573 494.043901,529.60724 496.370567,526.76724" id="Path" stroke="#E9EBEE"></path>
            <path d="M496.370567,526.76724 C500.543901,526.18724 504.953901,525.56724 509.600567,524.90724 C512.670567,524.46724 516.010567,524.08724 517.830567,521.72724 C519.290567,519.84724 520.347234,516.883907 521.000567,512.83724" id="Path" stroke="#C1C2C8"></path>
            <path d="M521.000567,512.83724 C520.553901,511.850573 520.163901,511.270573 519.830567,511.09724 C517.977234,510.13724 516.303901,509.62724 514.810567,509.56724 C505.730567,509.20724 496.043901,508.770573 485.750567,508.25724 C482.263901,508.083907 479.660567,507.750573 477.940567,507.25724 C468.860567,504.64724 460.090567,502.88724 449.780567,501.56724 C434.787234,499.66724 419.297234,498.25724 403.310567,497.33724 C384.237234,496.243907 366.653901,495.490573 350.560567,495.07724 C350.222239,495.070387 349.914984,494.878352 349.760567,494.57724 C349.207234,493.543907 348.730567,492.24724 348.330567,490.68724 C345.997234,481.653907 343.900567,472.700573 342.040567,463.82724 C342.025593,463.747219 342.042698,463.664744 342.087955,463.598744 C342.133212,463.532744 342.202735,463.488888 342.280567,463.47724 C342.360567,463.45724 342.450567,463.440573 342.550567,463.42724" id="Path" stroke="#E9EBEE"></path>
            <path d="M342.550567,463.42724 C347.260567,464.32724 352.410567,461.47724 355.470567,458.19724 C355.900506,457.741781 356.491509,457.469562 357.120567,457.43724 C359.187234,457.330573 362.083901,457.110573 365.810567,456.77724 C370.880567,456.33724 374.590567,458.56724 379.000567,460.06724" id="Path" stroke="#8B8A93"></path>
            <path d="M379.000567,460.06724 C388.160567,462.560573 395.847234,460.530573 402.060567,453.97724 C402.629714,453.376503 403.479321,453.12505 404.290567,453.31724 C408.580567,454.34724 412.650567,455.65724 415.810567,453.49724 C419.740567,450.80724 420.090567,445.63724 417.800567,441.60724 C415.070567,436.81724 411.070567,434.83724 406.480567,432.09724 C406.33516,432.012866 406.264912,431.841068 406.309543,431.678987 C406.354174,431.516906 406.502465,431.405286 406.670567,431.40724 L437.520567,431.39724" id="Path" stroke="#8F919A"></path>
            <line x1="437.520567" y1="431.39724" x2="602.820567" y2="432.84724" id="Path" stroke="#ADACB1"></line>
            <path d="M602.820567,432.84724 L603.150567,433.05724 C603.426101,433.236452 603.620228,433.520452 603.690567,433.84724 C605.003901,439.86724 604.827234,445.94724 603.160567,452.08724 C603.07418,452.408785 602.817259,452.658037 602.490567,452.73724 C601.077234,453.063907 599.600567,453.270573 598.060567,453.35724 C589.380567,453.85724 523.130567,456.48724 529.910567,470.81724 C534.490567,480.49724 578.570567,483.56724 589.050567,484.02724 C616.920567,485.23724 642.210567,484.47724 667.940567,480.32724 C677.380567,478.800573 685.053901,476.643907 690.960567,473.85724 C696.260567,471.35724 701.100567,464.79724 693.440567,460.99724 C687.860567,458.23724 681.813901,456.373907 675.300567,455.40724 C666.473901,454.100573 657.487234,453.230573 648.340567,452.79724 C648.047825,452.784252 647.795216,452.587778 647.710567,452.30724 C645.697234,445.540573 642.543901,439.340573 638.250567,433.70724 C638.179712,433.61709 638.144162,433.503332 638.150567,433.38724 C638.150567,433.213907 638.200567,433.113907 638.300567,433.08724" id="Path" stroke="#D2B49B"></path>
            <path d="M638.300567,433.08724 C638.807234,433.733907 639.483901,434.063907 640.330567,434.07724 C663.430567,434.44724 688.710567,435.21724 712.300567,435.67724 C743.767234,436.29724 779.060567,437.193907 818.180567,438.36724 C818.460711,438.377954 818.733537,438.275124 818.938275,438.081656 C819.143013,437.888188 819.262661,437.620148 819.271097,437.33724 L819.271097,437.05724 C819.281383,436.638114 819.126224,436.231903 818.839258,435.928056 C818.552291,435.624209 818.157049,435.447643 817.740567,435.43724 L638.810567,430.81724 C638.620306,430.81724 638.434382,430.865497 638.270567,430.95724 L637.480567,431.41724" id="Path" stroke="#ADACB1"></path>
            <path d="M637.480567,431.41724 L636.440567,430.98724 C636.078122,430.835586 635.750867,430.60719 635.480567,430.31724 C631.900567,426.443907 627.807234,423.190573 623.200567,420.55724 C622.965859,420.422045 622.807508,420.185247 622.772224,419.916694 C622.736939,419.648141 622.828747,419.378475 623.020567,419.18724 L626.330567,415.86724 C626.561702,415.636605 626.876979,415.504045 627.210567,415.49724 C635.340567,415.30724 646.200567,413.78724 653.310567,409.32724 C661.763901,404.033907 667.283901,396.61724 669.870567,387.07724 C671.810567,379.89724 668.060567,371.58724 660.840567,370.05724 C656.480567,369.13724 651.903901,369.413907 647.110567,370.88724 C646.919519,370.944609 646.712452,370.903279 646.558066,370.776964 C646.403681,370.650648 646.322166,370.455865 646.340567,370.25724 C646.680567,366.71724 646.517234,363.353907 645.850567,360.16724 C643.890567,350.71724 632.100567,344.83724 623.450567,342.77724 C613.243901,340.343907 603.033901,339.543907 592.820567,340.37724 C581.990567,341.26724 570.370567,343.83724 562.400567,351.48724 C556.710567,356.95724 555.850567,366.02724 556.760567,373.43724 C558.487234,387.53724 563.427234,400.56724 571.580567,412.52724 C573.240567,414.96724 574.820567,417.66724 576.890567,418.90724 C580.383901,421.013907 584.950567,422.803907 590.590567,424.27724 C593.190567,424.950573 595.767234,425.700573 598.320567,426.52724 C601.393901,427.52724 602.543901,428.730573 601.770567,430.13724" id="Path" stroke="#D2B49B"></path>
            <path d="M601.770567,430.13724 C577.960567,430.20724 549.200567,429.48724 530.480567,429.32724 C503.927234,429.100573 477.370567,428.91724 450.810567,428.77724 C446.057234,428.750573 441.273901,428.833907 436.460567,429.02724" id="Path" stroke="#ADACB1"></path>
            <path d="M436.460567,429.02724 C428.020567,429.080573 419.540567,429.06724 411.020567,428.98724 C408.733901,428.960573 406.427234,429.00724 404.100567,429.12724 C400.727234,429.300573 397.187234,429.040573 393.480567,428.34724 C392.671635,428.194204 392.017916,427.598507 391.790567,426.80724 C390.940567,423.86724 391.310567,423.06724 393.980567,421.18724 C398.187234,418.22724 401.213901,416.140573 403.060567,414.92724 C411.780567,409.18724 419.200567,400.48724 413.090567,389.82724 C412.663901,389.08724 412.060567,388.10724 411.280567,386.88724 C411.116492,386.629399 411.083135,386.310653 411.190567,386.02724 C421.250567,359.180573 431.423901,332.790573 441.710567,306.85724 C442.103901,305.87724 442.597234,305.330573 443.190567,305.21724" id="Path" stroke="#8F919A"></path>
            <path d="M443.190567,305.21724 C467.150567,312.39724 491.780567,312.98724 515.930567,308.04724 C531.777234,304.813907 546.923901,298.11724 561.370567,287.95724" id="Path" stroke="#8B8A93"></path>
            <path d="M561.370567,287.95724 L568.020567,282.97724 C568.073799,282.937312 568.127432,282.903792 568.180567,282.87724 C568.827234,282.57724 570.343901,282.13724 572.730567,281.55724 C579.620567,279.89724 586.560567,270.07724 587.360567,263.43724 C587.860567,259.30724 587.120567,255.22724 583.030567,253.29724 C582.887693,253.228405 582.785947,253.095871 582.756364,252.940064 C582.72678,252.784256 582.772867,252.623652 582.880567,252.50724 C584.420567,250.87724 586.670567,248.86724 586.900567,246.81724 C587.340567,243.02724 583.850567,239.77724 580.620567,238.56724" id="Path" stroke="#8F919A"></path>
            <path d="M580.620567,238.56724 C574.270567,236.02724 568.330567,236.33724 561.310567,237.42724 C552.660567,238.75724 544.000567,240.30724 535.230567,240.39724 C514.097234,240.603907 493.820567,235.133907 474.400567,223.98724" id="Path" stroke="#8B8A93"></path>
            <path d="M474.400567,223.98724 C478.107234,208.40724 480.423901,194.63724 481.350567,182.67724 C483.800567,151.25724 478.790567,120.08724 462.930567,92.7872401 C461.097234,89.6272401 459.653901,87.0972401 458.600567,85.1972401 C458.425694,84.8863818 458.358889,84.5242295 458.410567,84.1672401 C458.570567,83.0672401 458.663901,82.3339068 458.690567,81.9672401 C460.230567,60.3339068 457.940567,38.9172401 451.820567,17.7172401 C450.347234,12.6039068 448.700567,8.34057348 446.880567,4.92724014 C443.570567,-1.26275986 438.110567,-0.612759857 433.070567,2.93724014 C419.130567,12.7572401 406.550567,25.7272401 395.600567,39.0572401 C395.388367,39.3192882 395.040446,39.4326558 394.710567,39.3472401 C371.043901,33.2005735 347.300567,32.6172401 323.480567,37.5972401 C322.842596,37.7287379 322.180759,37.5380392 321.710567,37.0872401 C311.243901,26.9672401 299.797234,17.7305735 287.370567,9.37724014 C280.430567,4.71057348 275.577234,1.85724014 272.810567,0.817240143 C267.437234,-1.19609319 263.860567,0.510573477 262.080567,5.93724014 C260.707234,10.1505735 259.597234,14.4672401 258.750567,18.8872401 C255.923901,33.6805735 254.677234,48.7639068 255.010567,64.1372401 C255.023169,64.6793449 254.805247,65.202358 254.410567,65.5772401 C238.310567,81.0705735 225.063901,98.9705735 214.670567,119.27724 C188.150567,171.09724 176.640567,231.85724 181.820567,289.36724" id="Path" stroke="#8F919A"></path>
            <path d="M474.400567,223.98724 C474.107234,225.26724 473.617234,226.56724 472.930567,227.88724 C471.883901,229.88724 471.267234,231.143907 471.080567,231.65724 C468.690567,238.10724 467.020567,243.92724 464.660567,251.22724 C463.813901,253.833907 462.153901,258.103907 459.680567,264.03724 C454.013901,277.63724 448.517234,291.363907 443.190567,305.21724" id="Path" stroke="#1B1C2D"></path>
            <path d="M436.460567,429.02724 C437.233901,429.853907 437.587234,430.643907 437.520567,431.39724" id="Path" stroke="#3D3E4C"></path>
            <path d="M379.000567,460.06724 C380.647234,458.94724 381.823901,457.48724 382.530567,455.68724" id="Path" stroke="#1B1C2D"></path>
            <path d="M382.530567,455.68724 C386.643901,456.36724 390.540567,455.760573 394.220567,453.86724 C394.867234,453.52724 396.413901,452.09724 398.860567,449.57724 C399.098617,449.326008 399.379717,449.119416 399.690567,448.96724 C404.240567,446.75724 406.860567,448.08724 410.740567,449.06724 C410.992108,449.12676 411.24907,449.143666 411.500567,449.11724 C412.480567,449.010573 413.230567,448.530573 413.750567,447.67724 C414.830567,445.93724 412.990567,443.33724 411.780567,441.92724 C406.940567,436.27724 400.390567,435.24724 392.020567,432.96724 C389.420567,432.260573 387.727234,431.010573 386.940567,429.21724" id="Path" stroke="#8F919A"></path>
            <path d="M386.940567,429.21724 C390.950567,426.62724 392.650567,421.22724 387.740567,418.64724" id="Path" stroke="#1B1C2D"></path>
            <path d="M387.740567,418.64724 C394.280567,414.22724 401.310567,410.25724 406.700567,404.83724 C412.000567,399.50724 410.320567,393.41724 406.030567,388.12724 C397.450567,377.53724 385.930567,369.22724 374.620567,361.64724 C374.557874,361.604371 374.479873,361.589743 374.404453,361.606713 C374.329033,361.623683 374.262664,361.670793 374.220567,361.73724 C369.633901,368.843907 364.333901,377.160573 358.320567,386.68724 C354.540567,392.680573 348.650567,400.740573 340.650567,410.86724 C338.580567,413.48724 334.170567,417.29724 330.850567,417.13724" id="Path" stroke="#8F919A"></path>
            <path d="M330.850567,417.13724 L330.270567,416.35724 C330.165166,416.218725 330.090178,416.058522 330.050567,415.88724 C324.690567,394.23724 319.670567,375.76724 314.390567,354.05724 C308.997234,331.91724 305.607234,318.47724 304.220567,313.73724 C301.180567,303.37724 291.930567,294.58724 281.060567,294.10724 C247.960567,292.66724 214.880567,291.08724 181.820567,289.36724" id="Path" stroke="#797D89"></path>
            <path d="M580.620567,238.56724 C579.767234,240.180573 578.577234,241.413907 577.050567,242.26724" id="Path" stroke="#1B1C2D"></path>
            <path d="M577.050567,242.26724 C573.443901,241.380573 570.010567,241.14724 566.750567,241.56724 C559.470567,242.50724 551.957234,243.63724 544.210567,244.95724 C543.6154,245.054541 543.176496,245.569409 543.170567,246.17724 C543.157234,248.330573 543.363901,250.663907 543.790567,253.17724 C545.603901,263.850573 549.297234,274.183907 554.870567,284.17724 C555.111241,284.607978 555.516488,284.922538 555.993461,285.048851 C556.470434,285.175164 556.978252,285.102404 557.400567,284.84724 L559.330567,283.67724" id="Path" stroke="#8B8A93"></path>
            <path d="M559.330567,283.67724 L566.910567,279.33724 C567.048194,279.265607 567.216858,279.29623 567.320519,279.411671 C567.42418,279.527112 567.436543,279.698087 567.350567,279.82724 L561.370567,287.95724" id="Path" stroke="#1B1C2D"></path>
            <path d="M387.740567,418.64724 C377.367234,424.840573 366.150567,428.830573 354.090567,430.61724 C350.710567,431.123907 348.443901,431.160573 347.290567,430.72724 C341.770567,428.66724 336.733901,425.58724 332.180567,421.48724" id="Path" stroke="#8B8A93"></path>
            <path d="M386.940567,429.21724 L386.400567,425.79724 C386.382202,425.687702 386.314305,425.592774 386.216577,425.540001 C386.118848,425.487228 386.002232,425.482519 385.900567,425.52724 C378.113901,429.093907 370.060567,432.02724 361.740567,434.32724 C361.227234,434.46724 360.467234,434.593907 359.460567,434.70724 C358.820814,434.774945 358.341304,435.324202 358.360567,435.96724 L358.720567,451.84724 C358.723198,452.011681 358.791056,452.16834 358.909209,452.282741 C359.027362,452.397143 359.186127,452.459914 359.350567,452.45724 C362.380567,452.38724 366.930567,451.38724 370.610567,451.85724 C371.543901,451.970573 373.387234,452.553907 376.140567,453.60724 C378.240567,454.40724 380.370567,455.100573 382.530567,455.68724" id="Path" stroke="#8B8A93"></path>
            <path d="M330.850567,417.13724 C330.537234,417.27724 330.387234,417.58724 330.400567,418.06724 C330.400383,418.274654 330.470718,418.478625 330.600567,418.64724 C331.380567,419.640573 331.907234,420.58724 332.180567,421.48724" id="Path" stroke="#E9EBEE"></path>
            <path d="M332.180567,421.48724 C332.020567,423.86724 332.537234,426.153907 333.730567,428.34724 C333.875288,428.623531 333.954013,428.928162 333.960567,429.23724 L333.980567,430.24724 C333.98088,430.497433 334.104682,430.730032 334.310567,430.86724 L340.030567,434.61724 C340.770632,435.095667 341.155732,435.968037 341.010567,436.83724 L338.990567,449.31724 C338.911093,449.800662 338.911093,450.293818 338.990567,450.77724 C339.510567,454.070573 340.517234,458.013907 342.010567,462.60724 C342.103901,462.88724 342.283901,463.160573 342.550567,463.42724" id="Path" stroke="#757682"></path>
            <path d="M521.000567,512.83724 C515.750567,513.39724 510.060567,513.84724 505.340567,514.56724 C478.093901,518.66724 451.573901,522.28724 425.780567,525.42724 C405.190567,527.93724 380.660567,531.80724 363.060567,534.49724 C362.253901,534.61724 360.760567,534.410573 358.580567,533.87724" id="Path" stroke="#ABAEB7"></path>
            <path d="M358.580567,533.87724 L351.350567,533.07724 C350.974509,533.032582 350.594159,533.148498 350.300567,533.39724 C346.780567,536.42724 341.010567,536.35724 336.550567,536.13724 C323.030567,535.45724 310.287234,534.840573 298.320567,534.28724 C282.720567,533.56724 269.823901,532.973907 259.630567,532.50724 C255.583901,532.32724 230.007234,530.883907 182.900567,528.17724 C147.840567,526.15724 119.880567,524.76724 87.5405674,522.40724 C87.3540135,522.396555 87.1724045,522.469244 87.0462675,522.605083 C86.9201305,522.740923 86.8629252,522.925419 86.8905674,523.10724 C88.0705674,531.29724 94.4905674,532.03724 101.310567,532.40724 C120.690567,533.440573 166.773901,535.92724 239.560567,539.86724 C261.370567,541.04724 284.500567,541.81724 305.220567,542.71724 C326.693901,543.650573 344.807234,544.213907 359.560567,544.40724 C362.060567,544.440573 365.093901,544.26724 368.660567,543.88724" id="Path" stroke="#B9BCC5"></path>
            <line x1="368.660567" y1="543.88724" x2="496.370567" y2="526.76724" id="Path" stroke="#ABAEB7"></line>
            <path d="M40.5705674,435.65724 C41.617234,435.49724 42.1405674,434.990573 42.1405674,434.13724 C42.1339007,433.35724 41.8239007,432.853907 41.2105674,432.62724" id="Path" stroke="#9798A0"></path>
            <path d="M559.330567,283.67724 C561.497234,281.703907 563.647234,279.68724 565.780567,277.62724 C567.280567,276.18724 570.410567,277.10724 572.400567,276.36724 C572.947234,276.160573 573.703901,275.630573 574.670567,274.77724 C578.920567,271.00724 583.350567,265.67724 582.540567,259.65724 C582.448429,259.000861 581.877744,258.520967 581.220567,258.54724 L577.810567,258.67724 C577.711089,258.677286 577.613467,258.663821 577.520567,258.63724 C574.420567,257.53724 573.210567,254.35724 575.760567,252.12724 C577.887234,250.273907 579.513901,248.780573 580.640567,247.64724 C581.234238,247.048979 581.390218,246.145095 581.030567,245.38724 C580.310567,243.853907 578.983901,242.813907 577.050567,242.26724" id="Path" stroke="#8F919A"></path>
            <path d="M171.080567,288.87724 C152.673901,287.95724 134.377234,287.113907 116.190567,286.34724 C115.877234,286.333907 115.650567,286.260573 115.510567,286.12724 C115.323901,285.960573 115.223901,285.740573 115.210567,285.46724" id="Path" stroke="#757682"></path>
            <path d="M368.660567,543.88724 C364.633901,541.76724 360.720567,538.693907 356.920567,534.66724 C356.807872,534.550161 356.772828,534.378578 356.83059,534.226685 C356.888352,534.074793 357.028553,533.969852 357.190567,533.95724 L358.580567,533.87724" id="Path" stroke="#90929F"></path>
            <path d="M637.480567,431.41724 C637.920567,432.003907 638.193901,432.560573 638.300567,433.08724" id="Path" stroke="#7F614D"></path>
            <path d="M602.820567,432.84724 C603.207234,432.313907 602.857234,431.410573 601.770567,430.13724" id="Path" stroke="#7F614D"></path>
            <path d="M566.190567,20.5272401 L565.780567,18.5372401 C565.70589,18.2038861 565.456291,17.9389266 565.130567,17.8472401 C564.177234,17.5739068 563.010567,17.6005735 561.630567,17.9272401 C561.267986,18.0116202 561.029515,18.3584867 561.080567,18.7272401 L561.380567,20.9672401 C561.426788,21.33044 561.39959,21.7010097 561.300567,22.0572401 L560.240567,25.8472401 C560.134774,26.2279133 560.228999,26.6349622 560.490567,26.9272401 C561.490567,28.0472401 562.630567,28.4639068 563.910567,28.1772401 C564.267694,28.0939122 564.575211,27.8659879 564.760567,27.5472401 L566.370567,24.7572401 C566.564772,24.425101 566.938527,24.2461759 567.310567,24.3072401 L571.010567,24.9072401 C571.438087,24.976534 571.872225,24.8300469 572.170364,24.5159004 C572.468503,24.2017538 572.592105,23.7605554 572.500567,23.3372401 L572.400567,22.8572401 C572.178268,21.7971786 571.243686,21.0378312 570.160567,21.0372401 L566.820567,21.0372401 C566.518925,21.0387935 566.256459,20.8263214 566.190567,20.5272401" id="Path" stroke="#EEE6DE"></path>
            <path d="M589.190567,37.1872401 C589.197107,37.1493712 589.189847,37.1130743 589.170567,37.0872401 C586.883901,34.1672401 585.330567,31.4639068 584.510567,28.9772401 C583.890567,27.1039068 583.870567,25.4172401 584.450567,23.9172401 C585.690567,20.7072401 591.630567,21.1972401 592.770567,24.2672401 C593.357234,25.8272401 593.430567,27.7072401 592.990567,29.9072401 C592.617234,31.7805735 592.240567,35.0372401 591.860567,39.6772401 C591.720567,41.3172401 591.450567,43.6472401 591.050567,46.6672401 C590.730567,49.0272401 591.133901,52.2139068 592.260567,56.2272401 C592.900567,58.5072401 592.573901,60.4539068 591.280567,62.0672401 C590.672176,62.8204907 590.736939,63.9171355 591.430567,64.6072401 C592.790567,65.9739068 594.177234,66.8439068 595.590567,67.2172401 C595.803568,67.2744717 596.030996,67.2337091 596.210861,67.1060631 C596.390726,66.9784171 596.504278,66.7771936 596.520567,66.5572401 L597.030567,59.2172401 C597.043733,58.985759 597.016626,58.7587445 596.950567,58.5472401 C594.320567,50.0072401 592.320567,42.1772401 594.000567,33.2972401 C594.790567,29.1072401 595.460567,21.2772401 589.880567,20.0972401 C587.833901,19.6639068 586.060567,20.1239068 584.560567,21.4772401 C579.170567,26.3272401 584.550567,33.9072401 588.430567,38.2372401 C588.507005,38.3217832 588.623671,38.3575634 588.734364,38.3304121 C588.845058,38.3032609 588.931925,38.2175575 588.960567,38.1072401 L589.190567,37.1872401" id="Path" stroke="#EEE6DE"></path>
            <path d="M609.050567,38.5872401 C608.783901,38.3405735 608.447234,38.1939068 608.040567,38.1472401 C607.573901,38.0872401 607.180567,38.4239068 606.860567,39.1572401 C605.260567,42.7905735 604.583901,46.6005735 604.830567,50.5872401 C604.850515,50.8864534 604.900766,51.184605 604.980567,51.4772401 C605.887234,54.9039068 608.607234,58.5739068 613.140567,62.4872401 C616.007234,64.9605735 618.923901,65.6905735 621.890567,64.6772401 C624.510567,63.7972401 626.430567,61.7672401 628.700567,60.6372401 C634.210567,57.8672401 637.370567,51.6472401 636.410567,45.7172401 C636.350862,45.3257354 636.239878,44.9457005 636.080567,44.5872401 C632.140567,35.8072401 628.350567,29.2272401 618.820567,25.9172401 C615.627234,24.8039068 612.353901,24.9739068 609.000567,26.4272401 C608.387234,26.6872401 608.027234,27.0472401 607.920567,27.5072401 C607.859125,27.7697737 607.932463,28.0457622 608.119615,28.2563085 C608.306768,28.4668547 608.587135,28.588784 608.880567,28.5872401 C612.547234,28.5472401 615.383901,28.7205735 617.390567,29.1072401 C617.662468,29.1602905 617.925055,29.2511861 618.170567,29.3772401 L623.980567,32.4572401 C624.418414,32.6894762 624.818949,32.9789384 625.170567,33.3172401 C632.140567,39.9672401 636.800567,51.7072401 627.520567,58.6772401 C624.700567,60.7905735 621.117234,61.4439068 616.770567,60.6372401 C616.374513,60.5647226 615.99731,60.4152006 615.660567,60.1972401 C608.100567,55.3272401 607.330567,47.8072401 609.290567,39.3772401 C609.35917,39.0881202 609.267334,38.7858268 609.050567,38.5872401" id="Path" stroke="#EEE6DE"></path>
            <path d="M579.080567,43.4772401 C579.000567,44.1705735 578.963901,45.5639068 578.970567,47.6572401 C578.970596,48.2334461 578.87602,48.8076541 578.690567,49.3572401 C578.657234,49.4639068 578.130567,50.6672401 577.110567,52.9672401 C574.900567,57.9172401 577.520567,61.4772401 580.090567,65.4372401 C580.140038,65.5176473 580.224405,65.5701511 580.319777,65.5798829 C580.415149,65.5896147 580.51114,65.5555149 580.580567,65.4872401 L580.760567,65.3072401 C581.032227,65.0369805 581.107921,64.626638 580.950567,64.2772401 C578.640567,59.2172401 576.570567,55.0472401 580.410567,50.8072401 C580.794178,50.3854036 580.953872,49.8060468 580.840567,49.2472401 L579.620567,43.4572401 C579.615044,43.3081233 579.489684,43.1917174 579.340567,43.1970516 C579.191451,43.2027631 579.075045,43.3281233 579.080567,43.4772401" id="Path" stroke="#EEE6DE"></path>
            <path d="M612.970567,106.52724 C615.917234,102.620573 618.023901,97.7372401 619.290567,91.8772401" id="Path" stroke="#E9EBEE"></path>
            <path d="M619.290567,91.8772401 L623.070567,99.6772401 C623.287688,100.124462 623.40052,100.613403 623.400567,101.10724 C623.460567,111.36724 609.630567,106.35724 607.200567,114.36724 C606.000567,118.32724 604.767234,123.170573 603.500567,128.89724 C603.073901,130.85724 601.937234,131.783907 600.090567,131.67724 C599.423901,131.63724 597.840567,131.693907 595.340567,131.84724 C592.060567,132.05724 589.670567,132.94724 586.200567,133.46724 C585.725075,133.539916 585.242675,133.519533 584.780567,133.40724 C578.367234,131.900573 572.163901,128.990573 566.170567,124.67724 C564.770567,123.663907 563.087234,122.943907 561.120567,122.51724 C561.019908,122.498574 560.917664,122.540715 560.859391,122.624887 C560.801117,122.70906 560.797663,122.819593 560.850567,122.90724 C562.830567,125.833907 564.550567,127.883907 566.010567,129.05724 C574.017234,135.490573 583.300567,138.573907 593.860567,138.30724 C598.490567,138.18724 604.270567,137.12724 606.410567,132.44724 C608.250567,128.41724 609.340567,121.61724 610.190567,118.80724 C611.130567,115.67724 612.210567,114.42724 615.560567,113.34724 C619.060567,112.213907 622.130567,110.11724 624.770567,107.05724 C625.009458,106.778524 625.208025,106.468895 625.360567,106.13724 C627.060567,102.350573 627.163901,98.8205735 625.670567,95.5472401 C624.137234,92.1939068 622.283901,89.1372401 620.110567,86.3772401 C615.190567,80.1172401 608.940567,78.4172401 600.820567,75.4272401 C597.067234,74.0472401 594.157234,73.2005735 592.090567,72.8872401 C584.730567,71.7739068 578.383901,71.7339068 573.050567,72.7672401 C568.620567,73.6272401 560.760567,78.8072401 560.840567,84.9472401 C560.880567,87.8072401 560.677234,90.3005735 560.230567,92.4272401 C560.150567,92.8205735 560.193901,93.1539068 560.360567,93.4272401 C560.710567,93.9872401 561.810567,93.9672401 562.430567,94.5772401 C565.723901,97.8505735 569.640567,100.50724 574.180567,102.54724 C583.970567,106.94724 594.930567,109.76724 606.050567,109.56724 C608.723901,109.520573 611.030567,108.50724 612.970567,106.52724" id="Path" stroke="#EEE6DE"></path>
            <path d="M619.290567,91.8772401 C617.817234,88.2305735 615.350567,85.4705735 611.890567,83.5972401 C607.090567,80.9972401 600.760567,78.5972401 592.900567,76.3972401 C588.520567,75.1772401 583.617234,74.9339068 578.190567,75.6672401 C575.803901,75.9872401 573.840567,76.6072401 572.300567,77.5272401 C568.770567,79.6372401 565.610567,81.2772401 565.500567,85.9772401 C565.407234,89.9239068 566.953901,92.9539068 570.140567,95.0672401 C575.590567,98.6872401 579.970567,100.46724 586.480567,102.86724 C592.073901,104.92724 596.777234,106.20724 600.590567,106.70724 C603.217234,107.04724 607.343901,106.98724 612.970567,106.52724" id="Path" stroke="#D8D2CD"></path>
            <path d="M632.496867,294.52484 C633.720378,294.278076 634.118439,291.133211 633.385967,287.50054 C633.034214,285.756045 632.463459,284.130064 631.799261,282.980297 C631.135063,281.83053 630.431831,281.251159 629.844267,281.36964 C628.620757,281.616404 628.222696,284.761269 628.955167,288.39394 C629.30692,290.138436 629.877676,291.764416 630.541874,292.914183 C631.206072,294.06395 631.909304,294.643321 632.496867,294.52484" id="Path" stroke="#CFD0D6"></path>
            <path d="M616.630567,338.72724 C617.042601,338.848257 617.487818,338.733825 617.790431,338.429125 C618.093043,338.124425 618.204413,337.678432 618.080567,337.26724 C617.613901,335.720573 617.543901,334.35724 617.870567,333.17724 C617.991217,332.746803 618.299955,332.39396 618.710567,332.21724 C621.820567,330.90724 623.960567,329.76724 624.610567,326.17724 C626.140567,317.60724 620.870567,312.51724 614.810567,303.92724 C613.040567,301.41724 610.830567,296.17724 612.450567,293.50724 C614.023901,290.920573 614.907234,289.42724 615.100567,289.02724 C615.670054,287.844521 615.587333,286.552497 614.890567,285.74724 C614.157234,284.900573 613.213901,284.890573 612.060567,285.71724 C605.840567,290.17724 605.010567,298.69724 608.260567,305.48724 C608.720567,306.460573 610.457234,309.88724 613.470567,315.76724 C614.383901,317.540573 614.797234,319.720573 614.710567,322.30724 C614.640567,324.74724 613.230567,326.71724 612.720567,329.01724 C612.260567,331.05724 612.597234,333.453907 613.730567,336.20724 C614.216825,337.395423 615.21294,338.299646 616.440567,338.66724 L616.630567,338.72724" id="Path" stroke="#CFD0D6"></path>
            <path d="M654.170567,312.82724 C651.943901,313.220573 649.747234,314.43724 647.580567,316.47724 C641.610567,322.10724 645.310567,334.66724 651.810567,338.24724 C666.250567,346.19724 675.390567,309.12724 654.170567,312.82724" id="Path" stroke="#CFD0D6"></path>
            <path d="M595.195867,325.10874 C595.818214,325.142445 596.448231,324.56249 596.947322,323.496458 C597.446412,322.430426 597.773694,320.965642 597.857167,319.42434 C597.940646,317.883 597.773467,316.391401 597.39241,315.27769 C597.011353,314.16398 596.447632,313.519394 595.825267,313.48574 C595.202921,313.452035 594.572903,314.03199 594.073813,315.098022 C593.574722,316.164054 593.247441,317.628839 593.163967,319.17014 C593.080488,320.71148 593.247667,322.20308 593.628725,323.31679 C594.009782,324.4305 594.573502,325.075086 595.195867,325.10874" id="Path" stroke="#CFD0D6"></path>
            <path d="M542.860567,332.04724 C543.287234,331.073907 544.310567,329.95724 545.930567,328.69724 C546.639313,328.152464 547.622794,328.148366 548.330567,328.68724 C549.850567,329.833907 551.140567,331.290573 552.200567,333.05724 C552.411,333.405261 552.7896,333.616255 553.196273,333.612147 C553.602947,333.608039 553.977208,333.389441 554.180567,333.03724 L554.420567,332.62724 C555.047315,331.539308 555.020358,330.195324 554.350567,329.13724 C551.570567,324.73724 548.030567,323.703907 543.730567,326.03724 C542.937234,326.463907 540.707234,328.41724 537.040567,331.89724 C536.783496,332.14756 536.58235,332.450983 536.450567,332.78724 C535.390567,335.500573 535.470567,338.413907 536.690567,341.52724 C538.610567,346.40724 543.060567,348.07724 547.140567,344.30724 C549.727234,341.90724 550.913901,339.08724 550.700567,335.84724 C550.540567,333.513907 549.413901,332.003907 547.320567,331.31724 C547.018526,331.214446 546.69304,331.228753 546.410567,331.35724 L543.440567,332.62724 C543.274454,332.70038 543.080476,332.664014 542.952135,332.535673 C542.823793,332.407331 542.787428,332.213354 542.860567,332.04724" id="Path" stroke="#CFD0D6"></path>
            <path d="M532.293967,360.80524 C532.494831,358.893837 530.493735,357.116911 527.824367,356.83634 C526.542471,356.701595 525.274746,356.937004 524.300081,357.490781 C523.325416,358.044558 522.72365,358.871339 522.627167,359.78924 C522.426304,361.700643 524.4274,363.47757 527.096767,363.75814 C528.378664,363.892886 529.646388,363.657476 530.621053,363.103699 C531.595719,362.549922 532.197484,361.723141 532.293967,360.80524" id="Path" stroke="#CFD0D6"></path>
            <path d="M547.300567,393.24724 C545.160567,391.07724 543.260567,389.70724 540.040567,390.60724 C532.510567,392.71724 529.720567,398.00724 530.020567,405.31724 C530.290567,411.78724 531.680567,417.59724 536.910567,421.77724 C540.790567,424.87724 547.090567,425.84724 551.240567,422.13724 C557.010567,417.00724 558.280567,408.73724 556.930567,401.69724 C556.030567,396.96724 552.590567,395.69724 548.640567,394.13724 C548.13926,393.93928 547.682761,393.636083 547.300567,393.24724" id="Path" stroke="#D2B49B"></path>
            <path d="M269.010567,68.9372401 C269.194008,69.1272166 269.447119,69.2343404 269.712551,69.2343404 C269.977983,69.2343404 270.233269,69.1272166 270.420567,68.9372401 C280.590567,58.4472401 292.090567,51.3872401 305.480567,45.4872401 C305.860221,45.3211343 306.134957,44.9802466 306.216611,44.5739695 C306.298265,44.1676924 306.176566,43.7471291 305.890567,43.4472401 C295.470567,32.5072401 284.760567,21.7972401 271.560567,14.4172401 C271.211735,14.2243396 270.799699,14.1814576 270.4201,14.2985479 C270.040501,14.4156381 269.726351,14.6825179 269.550567,15.0372401 C268.790567,16.5305735 268.270567,18.2372401 267.990567,20.1572401 C265.863901,34.9305735 265.767234,49.8339068 267.700567,64.8672401 C267.880567,66.2972401 268.060567,67.9572401 269.010567,68.9372401" id="Path" stroke="#814549"></path>
            <path d="M445.910567,68.7372401 C446.950567,68.4905735 447.433901,67.8572401 447.360567,66.8372401 C447.300567,65.9972401 447.270567,65.5505735 447.270567,65.4972401 C447.883901,48.2972401 445.857234,31.7505735 441.190567,15.8572401 C440.968355,15.0931802 440.177655,14.6426136 439.400567,14.8372401 C438.353901,15.1039068 437.377234,15.6072401 436.470567,16.3472401 C428.920567,22.4772401 423.000567,30.1572401 417.250567,37.1072401 C415.543901,39.1672401 414.087234,41.2972401 412.880567,43.4972401 C412.678154,43.8630362 412.636359,44.2965429 412.765018,44.6957618 C412.893676,45.0949808 413.181427,45.4246635 413.560567,45.6072401 C425.780567,51.4272401 436.407234,59.0905735 445.440567,68.5972401 C445.557343,68.7268544 445.738234,68.7807367 445.910567,68.7372401" id="Path" stroke="#814549"></path>
            <path d="M367.320567,52.2472401 C367.287234,54.6939068 367.317234,58.1639068 367.410567,62.6572401 C367.690567,76.7905735 365.897234,90.6305735 362.030567,104.17724 C357.680567,119.40724 349.370567,132.45724 338.590567,143.99724 C331.717234,151.350573 325.907234,157.27724 321.160567,161.77724 C315.010567,167.60724 308.590567,175.80724 304.530567,181.88724 C294.683901,196.653907 290.750567,212.97724 292.730567,230.85724 C295.340567,254.51724 305.610567,277.80724 318.720567,297.54724 C329.160567,313.260573 341.413901,327.623907 355.480567,340.63724 C355.678823,340.815914 355.973986,340.828564 356.180567,340.66724 C359.713901,337.960573 363.187234,335.063907 366.600567,331.97724 C396.827234,304.623907 419.767234,272.073907 435.420567,234.32724 C444.260567,213.00724 450.267234,191.17724 453.440567,168.83724 C453.485665,168.530563 453.304505,168.235653 453.010567,168.13724 C432.217234,161.23724 414.717234,149.42724 400.510567,132.70724 C386.430567,116.13724 378.900567,95.5272401 373.510567,73.0872401 C371.583901,65.0605735 369.820567,58.0772401 368.220567,52.1372401 C368.156117,51.9227362 367.946539,51.7858317 367.724216,51.8130045 C367.501894,51.8401773 367.331458,52.0235279 367.320567,52.2472401" id="Path" stroke="#8F919A"></path>
            <path d="M323.930567,114.82724 C323.930567,111.767583 321.450225,109.28724 318.390567,109.28724 C315.33091,109.28724 312.850567,111.767583 312.850567,114.82724 C312.850567,117.886898 315.33091,120.36724 318.390567,120.36724 C319.859867,120.36724 321.268987,119.783563 322.307939,118.744612 C323.34689,117.70566 323.930567,116.296539 323.930567,114.82724" id="Path" stroke="#8F919A"></path>
            <path d="M431.250567,118.53724 C431.250567,115.599085 428.868722,113.21724 425.930567,113.21724 C422.992412,113.21724 420.610567,115.599085 420.610567,118.53724 C420.610567,119.948192 421.171066,121.301355 422.168759,122.299048 C423.166453,123.296742 424.519616,123.85724 425.930567,123.85724 C428.868722,123.85724 431.250567,121.475395 431.250567,118.53724" id="Path" stroke="#8F919A"></path>
            <path d="M371.770567,157.70724 C371.963465,157.529686 372.229635,157.455075 372.486717,157.506491 C372.7438,157.557907 372.960797,157.729153 373.070567,157.96724 C375.250567,162.70724 378.863901,165.74724 383.910567,167.08724 C385.460477,167.502394 387.10361,166.912142 388.030567,165.60724 L388.130567,165.46724 C388.54298,164.889224 388.665295,164.153126 388.461978,163.472796 C388.258661,162.792466 387.752508,162.244185 387.090567,161.98724 C383.050567,160.40724 380.690567,160.29724 378.310567,156.16724 C376.357234,152.76724 375.660567,149.100573 376.220567,145.16724 C376.305737,144.569995 376.731799,144.077483 377.310567,143.90724 C379.530567,143.233907 381.280567,142.17724 382.560567,140.73724 C385.150567,137.81724 385.290567,133.71724 380.540567,132.92724 C377.133901,132.360573 373.467234,132.173907 369.540567,132.36724 C366.240567,132.53724 365.280567,136.06724 366.770567,138.70724 C368.083901,141.040573 369.990567,142.75724 372.490567,143.85724 C373.047706,144.105647 373.315403,144.741977 373.100567,145.30724 C370.207234,153.060573 364.760567,157.72724 356.760567,159.30724 C356.356936,159.389569 356.013533,159.65543 355.830567,160.02724 C354.780567,162.19724 356.140567,163.92724 358.560567,164.34724 C364.120567,165.28724 368.290567,160.91724 371.770567,157.70724" id="Path" stroke="#8B8A93"></path>
            <path d="M586.650567,96.1172401 C588.060567,96.6672401 592.270567,95.9072401 593.980567,95.7572401 C597.840567,95.4272401 600.610567,96.7172401 603.930567,98.0372401 C605.277234,98.5705735 606.540567,98.7839068 607.720567,98.6772401 C608.026444,98.648009 608.2965,98.4645043 608.434844,98.1918838 C608.573189,97.9192632 608.56023,97.5961376 608.400567,97.3372401 C606.970567,94.9772401 604.040567,94.4872401 601.780567,93.4872401 C596.580567,91.1972401 591.230567,91.5772401 586.500567,94.6772401 C586.24621,94.847792 586.106297,95.1452175 586.137865,95.4482698 C586.169433,95.7513222 586.367209,96.0093781 586.650567,96.1172401" id="Path" stroke="#D8D2CD"></path>
            <path d="M198.381767,428.10774 C202.370692,422.515495 203.575884,415.283207 201.732213,408.001899 C199.888543,400.720591 195.147034,393.986711 188.550767,389.28164 C174.814781,379.483867 156.945851,380.981518 148.639367,392.62674 C144.650442,398.218985 143.445251,405.451274 145.288921,412.732582 C147.132592,420.01389 151.8741,426.747769 158.470367,431.45284 C172.206354,441.250613 190.075284,439.752962 198.381767,428.10774" id="Path" stroke="#E9EBEE"></path>
            <path d="M375.020567,518.60724 C375.000567,518.633907 374.417234,518.733907 373.270567,518.90724 C372.683901,518.993907 372.203901,519.133907 371.830567,519.32724 C368.297234,521.100573 363.890567,522.40724 358.610567,523.24724 C357.588458,523.415503 356.79011,524.217883 356.630567,525.23724 L356.110567,528.39724 C356.096265,528.501978 356.127446,528.607831 356.19624,528.688092 C356.265035,528.768352 356.364875,528.815355 356.470567,528.81724 C361.457234,528.850573 364.810567,528.76724 366.530567,528.56724 C390.083901,525.82724 411.540567,522.96724 430.900567,519.98724 C431.151024,519.950498 431.350132,519.758084 431.395414,519.509031 C431.440697,519.259977 431.322061,519.009791 431.100567,518.88724 C430.667234,518.64724 430.217234,518.530573 429.750567,518.53724 C418.350567,518.66724 407.810567,517.88724 397.480567,517.43724 C384.740567,516.870573 370.660567,516.173907 355.240567,515.347196 C355.174914,515.345932 355.112127,515.373998 355.070895,515.423084 C355.029663,515.472169 355.01474,515.536616 355.030567,515.59724 L356.390567,522.11724 C356.424292,522.265456 356.564035,522.367087 356.720567,522.35724 C362.373901,521.77724 367.797234,520.46724 372.990567,518.42724 C373.083901,518.38724 373.690567,518.310573 374.810567,518.19724 C374.910801,518.189811 375.005737,518.243131 375.051556,518.332587 C375.097375,518.422044 375.085167,518.530242 375.020567,518.60724" id="Path" stroke="#ABAEB7"></path>
            <path d="M662.320567,320.70724 C661.620567,317.66724 658.680567,316.09724 655.940567,316.58724 C653.990567,316.93724 650.060567,321.36724 649.120567,322.37724 C648.439558,323.095709 648.129413,324.088913 648.280567,325.06724 C648.653901,327.520573 649.457234,329.75724 650.690567,331.77724 C653.130567,335.77724 657.890567,334.49724 660.100567,331.21724 C662.407234,327.790573 663.147234,324.28724 662.320567,320.70724" id="Path" stroke="#CFD0D6"></path>
            <path d="M544.860567,335.30724 L541.390567,336.03724 C540.810236,336.153318 540.420378,336.700871 540.500567,337.28724 C540.667234,338.533907 541.047234,339.63724 541.640567,340.59724 C541.830313,340.906481 542.136545,341.126331 542.490225,341.207225 C542.843905,341.28812 543.215259,341.22325 543.520567,341.02724 C545.260567,339.893907 546.160567,338.36724 546.220567,336.44724 C546.230906,336.101346 546.082184,335.769783 545.816982,335.547482 C545.551781,335.32518 545.19934,335.236651 544.860567,335.30724" id="Path" stroke="#CFD0D6"></path>
            <path d="M618.160567,417.15724 C620.587234,413.590573 623.770567,408.990573 627.710567,403.35724 C630.163901,399.83724 633.053901,394.130573 636.380567,386.23724 C638.907234,380.23724 640.337234,374.58724 640.670567,369.28724 C640.910567,365.520573 640.983901,363.27724 640.890567,362.55724 C640.310567,358.02724 635.620567,354.05724 631.920567,352.26724 C619.360567,346.17724 605.340567,345.36724 591.070567,346.47724 C579.170567,347.39724 562.440567,352.85724 562.240567,366.94724 C562.127234,375.06724 563.460567,382.830573 566.240567,390.23724 C569.720567,399.49724 573.550567,407.84724 579.620567,414.93724 C580.052034,415.442522 580.724845,415.669355 581.370567,415.52724 C592.790567,413.01724 606.170567,414.55724 617.500567,417.40724 C617.751336,417.472554 618.016001,417.372302 618.160567,417.15724" id="Path" stroke="#D2B49B"></path>
            <path d="M630.750567,409.19724 C635.070567,409.05724 639.867234,408.19724 645.140567,406.61724 C652.780567,404.33724 658.793901,399.13724 663.180567,391.01724 C666.270567,385.30724 665.580567,377.43724 658.380567,375.47724 C655.040567,374.57724 651.340567,375.60724 648.080567,376.71724 C646.287234,377.330573 645.090567,378.573907 644.490567,380.44724 C641.983901,388.24724 638.627234,395.61724 634.420567,402.55724 C633.227234,404.523907 631.857234,406.433907 630.310567,408.28724 C630.166417,408.453292 630.135024,408.689244 630.230744,408.88721 C630.326463,409.085175 630.530897,409.207102 630.750567,409.19724" id="Path" stroke="#D2B49B"></path>
            <path d="M621.860567,360.28724 C621.747234,360.02724 621.483901,359.81724 621.070567,359.65724 C618.917234,358.81724 616.590567,358.36724 614.090567,358.30724 C609.170567,358.17724 604.190567,358.33724 599.320567,357.71724 C597.327234,357.463907 595.233901,357.38724 593.040567,357.48724 C592.31297,357.523594 591.67104,357.97489 591.390567,358.64724 L591.370567,358.69724 C591.249463,358.974644 591.270937,359.29363 591.428128,359.552299 C591.58532,359.810969 591.858561,359.976957 592.160567,359.99724 L608.020567,361.10724 C608.140153,361.113914 608.257625,361.107201 608.370567,361.08724 C612.983901,360.373907 617.307234,360.333907 621.340567,360.96724 C621.516435,360.992816 621.692364,360.921162 621.800319,360.779991 C621.908273,360.63882 621.931328,360.450263 621.860567,360.28724" id="Path" stroke="#EEE6DE"></path>
            <path d="M573.020567,373.38724 C574.400567,374.06724 576.083901,374.590573 578.070567,374.95724 C592.297234,377.57724 607.000567,377.78724 622.180567,375.58724 C622.469098,375.544709 622.726513,375.38298 622.890041,375.14149 C623.05357,374.9 623.108184,374.600942 623.040567,374.31724 L623.030567,374.26724 C622.874785,373.638431 622.323707,373.189404 621.680567,373.16724 C615.840567,372.953907 609.600567,372.80724 602.960567,372.72724 C593.270567,372.60724 584.290567,371.63724 575.460567,370.29724 C574.293901,370.123907 573.433901,370.243907 572.880567,370.65724 C572.424113,371.000026 572.163532,371.547563 572.192065,372.103939 C572.220597,372.660315 572.534163,373.146011 573.020567,373.38724" id="Path" stroke="#D2B49B"></path>
            <path d="M530.486967,360.56884 C530.617604,359.488747 529.274615,358.437843 527.487267,358.22154 C526.628912,358.117661 525.780774,358.224092 525.12944,358.517419 C524.478105,358.810746 524.076929,359.266939 524.014167,359.78564 C523.883531,360.865733 525.22652,361.916638 527.013867,362.13294 C527.872223,362.236819 528.72036,362.130388 529.371695,361.837061 C530.02303,361.543735 530.424206,361.087541 530.486967,360.56884" id="Path" stroke="#CFD0D6"></path>
            <path d="M539.090567,398.21724 C536.337234,399.270573 534.987234,401.353907 535.040567,404.46724 C535.180567,411.75724 537.360567,419.69724 546.510567,418.74724 C548.690567,418.52724 549.780567,417.30724 550.820567,415.45724 C553.070567,411.46724 554.710567,404.50724 551.240567,400.79724 C550.843463,400.374067 550.326556,400.08418 549.760567,399.96724 L540.880567,398.07724 C540.27955,397.952977 539.658592,398.001543 539.090567,398.21724" id="Path" stroke="#D2B49B"></path>
            <path d="M393.230436,519.97104 C393.21511,519.831285 392.154266,519.812762 390.28114,519.919547 C388.408014,520.026332 385.876066,520.249676 383.242367,520.54044 C377.758687,521.145845 373.3392,521.872464 373.370698,522.16344 C373.386025,522.303195 374.446869,522.321718 376.319995,522.214933 C378.19312,522.108148 380.725069,521.884804 383.358767,521.59404 C388.842447,520.988636 393.261935,520.262016 393.230436,519.97104" id="Path" stroke="#AFA8A7"></path>
            <path d="M397.100529,521.64724 C397.100529,521.853907 397.960567,521.940573 399.680567,521.90724 C401.407234,521.873907 402.267234,521.753907 402.260606,521.54724 C402.253901,521.340573 401.390567,521.253907 399.670567,521.28724 C397.950567,521.320573 397.093901,521.440573 397.100529,521.64724" id="Path" stroke="#ABAEB7"></path>
        </g>
        <path d="M475.34,225.06 C475.046667,226.34 474.556667,227.64 473.87,228.96 C472.823333,230.96 472.206667,232.216667 472.02,232.73 C469.63,239.18 467.96,245 465.6,252.3 C464.753333,254.906667 463.093333,259.176667 460.62,265.11 C454.953333,278.71 449.456667,292.436667 444.13,306.29 C443.536667,306.403333 443.043333,306.95 442.65,307.93 C432.363333,333.863333 422.19,360.253333 412.13,387.1 C412.022568,387.383413 412.055925,387.702159 412.22,387.96 C413,389.18 413.603333,390.16 414.03,390.9 C420.14,401.56 412.72,410.26 404,416 C402.153333,417.213333 399.126667,419.3 394.92,422.26 C392.25,424.14 391.88,424.94 392.73,427.88 C392.957349,428.671267 393.611068,429.266964 394.42,429.42 C398.126667,430.113333 401.666667,430.373333 405.04,430.2 C407.366667,430.08 409.673333,430.033333 411.96,430.06 C420.48,430.14 428.96,430.153333 437.4,430.1 C438.173333,430.926667 438.526667,431.716667 438.46,432.47 L407.61,432.48 C407.441898,432.478046 407.293607,432.589666 407.248976,432.751747 C407.204345,432.913828 407.274593,433.085626 407.42,433.17 C412.01,435.91 416.01,437.89 418.74,442.68 C421.03,446.71 420.68,451.88 416.75,454.57 C413.59,456.73 409.52,455.42 405.23,454.39 C404.418754,454.197809 403.569147,454.449263 403,455.05 C396.786667,461.603333 389.1,463.633333 379.94,461.14 C381.586667,460.02 382.763333,458.56 383.47,456.76 C387.583333,457.44 391.48,456.833333 395.16,454.94 C395.806667,454.6 397.353333,453.17 399.8,450.65 C400.03805,450.398768 400.31915,450.192176 400.63,450.04 C405.18,447.83 407.8,449.16 411.68,450.14 C411.931541,450.19952 412.188503,450.216425 412.44,450.19 C413.42,450.083333 414.17,449.603333 414.69,448.75 C415.77,447.01 413.93,444.41 412.72,443 C407.88,437.35 401.33,436.32 392.96,434.04 C390.36,433.333333 388.666667,432.083333 387.88,430.29 C391.89,427.7 393.59,422.3 388.68,419.72 C395.22,415.3 402.25,411.33 407.64,405.91 C412.94,400.58 411.26,394.49 406.97,389.2 C398.39,378.61 386.87,370.3 375.56,362.72 C375.497306,362.677131 375.419305,362.662503 375.343885,362.679473 C375.268465,362.696442 375.202097,362.743553 375.16,362.81 C370.573333,369.916667 365.273333,378.233333 359.26,387.76 C355.48,393.753333 349.59,401.813333 341.59,411.94 C339.52,414.56 335.11,418.37 331.79,418.21 L331.21,417.43 C331.104599,417.291484 331.029611,417.131282 330.99,416.96 C325.63,395.31 320.61,376.84 315.33,355.13 C309.936667,332.99 306.546667,319.55 305.16,314.81 C302.12,304.45 292.87,295.66 282,295.18 C248.9,293.74 215.82,292.16 182.76,290.44 C177.58,232.93 189.09,172.17 215.61,120.35 C226.003333,100.043333 239.25,82.1433333 255.35,66.65 C255.744679,66.2751179 255.962601,65.7521047 255.95,65.21 C255.616667,49.8366667 256.863333,34.7533333 259.69,19.96 C260.536667,15.54 261.646667,11.2233333 263.02,7.01 C264.8,1.58333333 268.376667,-0.123333333 273.75,1.89 C276.516667,2.93 281.37,5.78333333 288.31,10.45 C300.736667,18.8033333 312.183333,28.04 322.65,38.16 C323.120191,38.6107991 323.782028,38.8014978 324.42,38.67 C348.24,33.69 371.983333,34.2733333 395.65,40.42 C395.979879,40.5054157 396.3278,40.392048 396.54,40.13 C407.49,26.8 420.07,13.83 434.01,4.01 C439.05,0.46 444.51,-0.19 447.82,6 C449.64,9.41333333 451.286667,13.6766667 452.76,18.79 C458.88,39.99 461.17,61.4066667 459.63,83.04 C459.603333,83.4066667 459.51,84.14 459.35,85.24 C459.298322,85.5969894 459.365126,85.9591417 459.54,86.27 C460.593333,88.17 462.036667,90.7 463.87,93.86 C479.73,121.16 484.74,152.33 482.29,183.75 C481.363333,195.71 479.046667,209.48 475.34,225.06 Z M269.95,70.01 C270.133441,70.1999764 270.386551,70.3071003 270.651984,70.3071003 C270.917416,70.3071003 271.172702,70.1999764 271.36,70.01 C281.53,59.52 293.03,52.46 306.42,46.56 C306.799654,46.3938941 307.07439,46.0530065 307.156044,45.6467294 C307.237698,45.2404523 307.115998,44.819889 306.83,44.52 C296.41,33.58 285.7,22.87 272.5,15.49 C272.151168,15.2970994 271.739132,15.2542175 271.359533,15.3713077 C270.979934,15.488398 270.665783,15.7552778 270.49,16.11 C269.73,17.6033333 269.21,19.31 268.93,21.23 C266.803333,36.0033333 266.706667,50.9066667 268.64,65.94 C268.82,67.37 269,69.03 269.95,70.01 Z M446.85,69.81 C447.89,69.5633333 448.373333,68.93 448.3,67.91 C448.24,67.07 448.21,66.6233333 448.21,66.57 C448.823333,49.37 446.796667,32.8233333 442.13,16.93 C441.907788,16.16594 441.117088,15.7153735 440.34,15.91 C439.293333,16.1766667 438.316667,16.68 437.41,17.42 C429.86,23.55 423.94,31.23 418.19,38.18 C416.483333,40.24 415.026667,42.37 413.82,44.57 C413.617587,44.9357961 413.575792,45.3693028 413.70445,45.7685217 C413.833109,46.1677406 414.12086,46.4974234 414.5,46.68 C426.72,52.5 437.346667,60.1633333 446.38,69.67 C446.496776,69.7996143 446.677666,69.8534966 446.85,69.81 L446.85,69.81 Z M368.26,53.32 C368.226667,55.7666667 368.256667,59.2366667 368.35,63.73 C368.63,77.8633333 366.836667,91.7033333 362.97,105.25 C358.62,120.48 350.31,133.53 339.53,145.07 C332.656667,152.423333 326.846667,158.35 322.1,162.85 C315.95,168.68 309.53,176.88 305.47,182.96 C295.623333,197.726667 291.69,214.05 293.67,231.93 C296.28,255.59 306.55,278.88 319.66,298.62 C330.1,314.333333 342.353333,328.696667 356.42,341.71 C356.618256,341.888674 356.913418,341.901323 357.12,341.74 C360.653333,339.033333 364.126667,336.136667 367.54,333.05 C397.766667,305.696667 420.706667,273.146667 436.36,235.4 C445.2,214.08 451.206667,192.25 454.38,169.91 C454.425097,169.603323 454.243938,169.308412 453.95,169.21 C433.156667,162.31 415.656667,150.5 401.45,133.78 C387.37,117.21 379.84,96.6 374.45,74.16 C372.523333,66.1333333 370.76,59.15 369.16,53.21 C369.09555,52.9954961 368.885972,52.8585916 368.663649,52.8857643 C368.441326,52.9129371 368.27089,53.0962878 368.26,53.32 Z M324.87,115.9 C324.87,112.840342 322.389658,110.36 319.33,110.36 C316.270342,110.36 313.79,112.840342 313.79,115.9 C313.79,118.959658 316.270342,121.44 319.33,121.44 C320.799299,121.44 322.20842,120.856323 323.247372,119.817372 C324.286323,118.77842 324.87,117.369299 324.87,115.9 L324.87,115.9 Z M432.19,119.61 C432.19,116.671845 429.808155,114.29 426.87,114.29 C423.931845,114.29 421.55,116.671845 421.55,119.61 C421.55,121.020952 422.110498,122.374115 423.108192,123.371808 C424.105885,124.369502 425.459048,124.93 426.87,124.93 C429.808155,124.93 432.19,122.548155 432.19,119.61 L432.19,119.61 Z" id="Shape" fill="#1F2234" fill-rule="nonzero"></path>
        <path d="M269.95,70.01 C269,69.03 268.82,67.37 268.64,65.94 C266.706667,50.9066667 266.803333,36.0033333 268.93,21.23 C269.21,19.31 269.73,17.6033333 270.49,16.11 C270.665783,15.7552778 270.979934,15.488398 271.359533,15.3713077 C271.739132,15.2542175 272.151168,15.2970994 272.5,15.49 C285.7,22.87 296.41,33.58 306.83,44.52 C307.115998,44.819889 307.237698,45.2404523 307.156044,45.6467294 C307.07439,46.0530065 306.799654,46.3938941 306.42,46.56 C293.03,52.46 281.53,59.52 271.36,70.01 C271.172702,70.1999764 270.917416,70.3071003 270.651984,70.3071003 C270.386551,70.3071003 270.133441,70.1999764 269.95,70.01 L269.95,70.01 Z" id="Path" fill="#E3675D" fill-rule="nonzero"></path>
        <path d="M446.85,69.81 C446.677666,69.8534966 446.496776,69.7996143 446.38,69.67 C437.346667,60.1633333 426.72,52.5 414.5,46.68 C414.12086,46.4974234 413.833109,46.1677406 413.70445,45.7685217 C413.575792,45.3693028 413.617587,44.9357961 413.82,44.57 C415.026667,42.37 416.483333,40.24 418.19,38.18 C423.94,31.23 429.86,23.55 437.41,17.42 C438.316667,16.68 439.293333,16.1766667 440.34,15.91 C441.117088,15.7153735 441.907788,16.16594 442.13,16.93 C446.796667,32.8233333 448.823333,49.37 448.21,66.57 C448.21,66.6233333 448.24,67.07 448.3,67.91 C448.373333,68.93 447.89,69.5633333 446.85,69.81 Z" id="Path" fill="#E3675D" fill-rule="nonzero"></path>
        <path d="M567.76,22.11 L571.1,22.11 C572.183119,22.1105911 573.117701,22.8699385 573.34,23.93 L573.44,24.41 C573.531538,24.8333152 573.407935,25.2745137 573.109796,25.5886602 C572.811657,25.9028068 572.37752,26.0492939 571.95,25.98 L568.25,25.38 C567.877959,25.3189358 567.504205,25.4978609 567.31,25.83 L565.7,28.62 C565.514644,28.9387477 565.207127,29.166672 564.85,29.25 C563.57,29.5366667 562.43,29.12 561.43,28 C561.168431,27.707722 561.074207,27.3006732 561.18,26.92 L562.24,23.13 C562.339023,22.7737696 562.366221,22.4031999 562.32,22.04 L562.02,19.8 C561.968948,19.4312466 562.207418,19.08438 562.57,19 C563.95,18.6733333 565.116667,18.6466667 566.07,18.92 C566.395723,19.0116865 566.645323,19.2766459 566.72,19.61 L567.13,21.6 C567.195892,21.8990813 567.458357,22.1115534 567.76,22.11 Z" id="Path" fill="#DCCCBC" fill-rule="nonzero"></path>
        <path d="M589.37,39.31 C585.49,34.98 580.11,27.4 585.5,22.55 C587,21.1966667 588.773333,20.7366667 590.82,21.17 C596.4,22.35 595.73,30.18 594.94,34.37 C593.26,43.25 595.26,51.08 597.89,59.62 C597.956059,59.8315044 597.983165,60.0585188 597.97,60.29 L597.46,67.63 C597.443711,67.8499534 597.330159,68.051177 597.150294,68.1788229 C596.970429,68.3064689 596.743001,68.3472315 596.53,68.29 C595.116667,67.9166667 593.73,67.0466667 592.37,65.68 C591.676371,64.9898954 591.611609,63.8932506 592.22,63.14 C593.513333,61.5266667 593.84,59.58 593.2,57.3 C592.073333,53.2866667 591.67,50.1 591.99,47.74 C592.39,44.72 592.66,42.39 592.8,40.75 C593.18,36.11 593.556667,32.8533333 593.93,30.98 C594.37,28.78 594.296667,26.9 593.71,25.34 C592.57,22.27 586.63,21.78 585.39,24.99 C584.81,26.49 584.83,28.1766667 585.45,30.05 C586.27,32.5366667 587.823333,35.24 590.11,38.16 C590.12928,38.1858342 590.136539,38.2221311 590.13,38.26 L589.9,39.18 C589.871358,39.2903173 589.784491,39.3760207 589.673797,39.403172 C589.563103,39.4303233 589.446438,39.394543 589.37,39.31 L589.37,39.31 Z" id="Path" fill="#DCCCBC" fill-rule="nonzero"></path>
        <path d="M610.23,40.45 C608.27,48.88 609.04,56.4 616.6,61.27 C616.936742,61.4879605 617.313945,61.6374824 617.71,61.71 C622.056667,62.5166667 625.64,61.8633333 628.46,59.75 C637.74,52.78 633.08,41.04 626.11,34.39 C625.758381,34.0516982 625.357846,33.762236 624.92,33.53 L619.11,30.45 C618.864488,30.3239459 618.6019,30.2330504 618.33,30.18 C616.323333,29.7933333 613.486667,29.62 609.82,29.66 C609.526567,29.6615439 609.2462,29.5396146 609.059048,29.3290683 C608.871896,29.1185221 608.798558,28.8425335 608.86,28.58 C608.966667,28.12 609.326667,27.76 609.94,27.5 C613.293333,26.0466667 616.566667,25.8766667 619.76,26.99 C629.29,30.3 633.08,36.88 637.02,45.66 C637.179311,46.0184603 637.290294,46.3984953 637.35,46.79 C638.31,52.72 635.15,58.94 629.64,61.71 C627.37,62.84 625.45,64.87 622.83,65.75 C619.863333,66.7633333 616.946667,66.0333333 614.08,63.56 C609.546667,59.6466667 606.826667,55.9766667 605.92,52.55 C605.840198,52.2573649 605.789948,51.9592132 605.77,51.66 C605.523333,47.6733333 606.2,43.8633333 607.8,40.23 C608.12,39.4966667 608.513333,39.16 608.98,39.22 C609.386667,39.2666667 609.723333,39.4133333 609.99,39.66 C610.206766,39.8585867 610.298602,40.1608801 610.23,40.45 L610.23,40.45 Z" id="Path" fill="#DCCCBC" fill-rule="nonzero"></path>
        <path d="M580.02,44.55 C580.014477,44.4008832 580.130883,44.275523 580.28,44.2698114 C580.429117,44.2644773 580.554477,44.3808832 580.56,44.53 L581.78,50.32 C581.893305,50.8788066 581.73361,51.4581635 581.35,51.88 C577.51,56.12 579.58,60.29 581.89,65.35 C582.047353,65.6993979 581.971659,66.1097404 581.7,66.38 L581.52,66.56 C581.450573,66.6282747 581.354581,66.6623746 581.25921,66.6526428 C581.163838,66.642911 581.079471,66.5904072 581.03,66.51 C578.46,62.55 575.84,58.99 578.05,54.04 C579.07,51.74 579.596667,50.5366667 579.63,50.43 C579.815453,49.880414 579.910028,49.306206 579.91,48.73 C579.903333,46.6366667 579.94,45.2433333 580.02,44.55 Z" id="Path" fill="#DCCCBC" fill-rule="nonzero"></path>
        <path d="M368.26,53.32 C368.27089,53.0962878 368.441326,52.9129371 368.663649,52.8857643 C368.885972,52.8585916 369.09555,52.9954961 369.16,53.21 C370.76,59.15 372.523333,66.1333333 374.45,74.16 C379.84,96.6 387.37,117.21 401.45,133.78 C415.656667,150.5 433.156667,162.31 453.95,169.21 C454.243938,169.308412 454.425097,169.603323 454.38,169.91 C451.206667,192.25 445.2,214.08 436.36,235.4 C420.706667,273.146667 397.766667,305.696667 367.54,333.05 C364.126667,336.136667 360.653333,339.033333 357.12,341.74 C356.913418,341.901323 356.618256,341.888674 356.42,341.71 C342.353333,328.696667 330.1,314.333333 319.66,298.62 C306.55,278.88 296.28,255.59 293.67,231.93 C291.69,214.05 295.623333,197.726667 305.47,182.96 C309.53,176.88 315.95,168.68 322.1,162.85 C326.846667,158.35 332.656667,152.423333 339.53,145.07 C350.31,133.53 358.62,120.48 362.97,105.25 C366.836667,91.7033333 368.63,77.8633333 368.35,63.73 C368.256667,59.2366667 368.226667,55.7666667 368.26,53.32 Z M372.71,158.78 C372.902898,158.602446 373.169067,158.527834 373.42615,158.579251 C373.683232,158.630667 373.90023,158.801913 374.01,159.04 C376.19,163.78 379.803333,166.82 384.85,168.16 C386.39991,168.575154 388.043043,167.984902 388.97,166.68 L389.07,166.54 C389.482412,165.961984 389.604727,165.225885 389.40141,164.545556 C389.198093,163.865226 388.691941,163.316945 388.03,163.06 C383.99,161.48 381.63,161.37 379.25,157.24 C377.296667,153.84 376.6,150.173333 377.16,146.24 C377.24517,145.642755 377.671232,145.150243 378.25,144.98 C380.47,144.306667 382.22,143.25 383.5,141.81 C386.09,138.89 386.23,134.79 381.48,134 C378.073333,133.433333 374.406667,133.246667 370.48,133.44 C367.18,133.61 366.22,137.14 367.71,139.78 C369.023333,142.113333 370.93,143.83 373.43,144.93 C373.987139,145.178407 374.254836,145.814737 374.04,146.38 C371.146667,154.133333 365.7,158.8 357.7,160.38 C357.296369,160.462329 356.952965,160.72819 356.77,161.1 C355.72,163.27 357.08,165 359.5,165.42 C365.06,166.36 369.23,161.99 372.71,158.78 Z" id="Shape" fill="#FFFFFF" fill-rule="nonzero"></path>
        <path d="M620.23,92.95 C618.756667,89.3033333 616.29,86.5433333 612.83,84.67 C608.03,82.07 601.7,79.67 593.84,77.47 C589.46,76.25 584.556667,76.0066667 579.13,76.74 C576.743333,77.06 574.78,77.68 573.24,78.6 C569.71,80.71 566.55,82.35 566.44,87.05 C566.346667,90.9966667 567.893333,94.0266667 571.08,96.14 C576.53,99.76 580.91,101.54 587.42,103.94 C593.013333,106 597.716667,107.28 601.53,107.78 C604.156667,108.12 608.283333,108.06 613.91,107.6 C611.97,109.58 609.663333,110.593333 606.99,110.64 C595.87,110.84 584.91,108.02 575.12,103.62 C570.58,101.58 566.663333,98.9233333 563.37,95.65 C562.75,95.04 561.65,95.06 561.3,94.5 C561.133333,94.2266667 561.09,93.8933333 561.17,93.5 C561.616667,91.3733333 561.82,88.88 561.78,86.02 C561.7,79.88 569.56,74.7 573.99,73.84 C579.323333,72.8066667 585.67,72.8466667 593.03,73.96 C595.096667,74.2733333 598.006667,75.12 601.76,76.5 C609.88,79.49 616.13,81.19 621.05,87.45 C623.223333,90.21 625.076667,93.2666667 626.61,96.62 C628.103333,99.8933333 628,103.423333 626.3,107.21 C626.147457,107.541655 625.948891,107.851284 625.71,108.13 C623.07,111.19 620,113.286667 616.5,114.42 C613.15,115.5 612.07,116.75 611.13,119.88 C610.28,122.69 609.19,129.49 607.35,133.52 C605.21,138.2 599.43,139.26 594.8,139.38 C584.24,139.646667 574.956667,136.563333 566.95,130.13 C565.49,128.956667 563.77,126.906667 561.79,123.98 C561.737096,123.892353 561.74055,123.781819 561.798823,123.697647 C561.857097,123.613474 561.95934,123.571334 562.06,123.59 C564.026667,124.016667 565.71,124.736667 567.11,125.75 C573.103333,130.063333 579.306667,132.973333 585.72,134.48 C586.182107,134.592293 586.664507,134.612676 587.14,134.54 C590.61,134.02 593,133.13 596.28,132.92 C598.78,132.766667 600.363333,132.71 601.03,132.75 C602.876667,132.856667 604.013333,131.93 604.44,129.97 C605.706667,124.243333 606.94,119.4 608.14,115.44 C610.57,107.43 624.4,112.44 624.34,102.18 C624.339953,101.686163 624.22712,101.197222 624.01,100.75 L620.23,92.95 Z" id="Path" fill="#DCCCBC" fill-rule="nonzero"></path>
        <path d="M620.23,92.95 C618.963333,98.81 616.856667,103.693333 613.91,107.6 C608.283333,108.06 604.156667,108.12 601.53,107.78 C597.716667,107.28 593.013333,106 587.42,103.94 C580.91,101.54 576.53,99.76 571.08,96.14 C567.893333,94.0266667 566.346667,90.9966667 566.44,87.05 C566.55,82.35 569.71,80.71 573.24,78.6 C574.78,77.68 576.743333,77.06 579.13,76.74 C584.556667,76.0066667 589.46,76.25 593.84,77.47 C601.7,79.67 608.03,82.07 612.83,84.67 C616.29,86.5433333 618.756667,89.3033333 620.23,92.95 Z M587.59,97.19 C589,97.74 593.21,96.98 594.92,96.83 C598.78,96.5 601.55,97.79 604.87,99.11 C606.216667,99.6433333 607.48,99.8566667 608.66,99.75 C608.965877,99.7207688 609.235932,99.5372642 609.374277,99.2646436 C609.512622,98.992023 609.499662,98.6688975 609.34,98.41 C607.91,96.05 604.98,95.56 602.72,94.56 C597.52,92.27 592.17,92.65 587.44,95.75 C587.185643,95.9205519 587.04573,96.2179773 587.077298,96.5210297 C587.108866,96.824082 587.306641,97.082138 587.59,97.19 Z" id="Shape" fill="#D3D7DD" fill-rule="nonzero"></path>
        <path d="M587.59,97.19 C587.306641,97.082138 587.108866,96.824082 587.077298,96.5210297 C587.04573,96.2179773 587.185643,95.9205519 587.44,95.75 C592.17,92.65 597.52,92.27 602.72,94.56 C604.98,95.56 607.91,96.05 609.34,98.41 C609.499662,98.6688975 609.512622,98.992023 609.374277,99.2646436 C609.235932,99.5372642 608.965877,99.7207688 608.66,99.75 C607.48,99.8566667 606.216667,99.6433333 604.87,99.11 C601.55,97.79 598.78,96.5 594.92,96.83 C593.21,96.98 589,97.74 587.59,97.19 Z" id="Path" fill="#DCCCBC" fill-rule="nonzero"></path>
        <circle id="Oval" fill="#FFFFFF" fill-rule="nonzero" cx="319.33" cy="115.9" r="5.54"></circle>
        <circle id="Oval" fill="#FFFFFF" fill-rule="nonzero" cx="426.87" cy="119.61" r="5.32"></circle>
        <path d="M372.71,158.78 C369.23,161.99 365.06,166.36 359.5,165.42 C357.08,165 355.72,163.27 356.77,161.1 C356.952965,160.72819 357.296369,160.462329 357.7,160.38 C365.7,158.8 371.146667,154.133333 374.04,146.38 C374.254836,145.814737 373.987139,145.178407 373.43,144.93 C370.93,143.83 369.023333,142.113333 367.71,139.78 C366.22,137.14 367.18,133.61 370.48,133.44 C374.406667,133.246667 378.073333,133.433333 381.48,134 C386.23,134.79 386.09,138.89 383.5,141.81 C382.22,143.25 380.47,144.306667 378.25,144.98 C377.671232,145.150243 377.24517,145.642755 377.16,146.24 C376.6,150.173333 377.296667,153.84 379.25,157.24 C381.63,161.37 383.99,161.48 388.03,163.06 C388.691941,163.316945 389.198093,163.865226 389.40141,164.545556 C389.604727,165.225885 389.482412,165.961984 389.07,166.54 L388.97,166.68 C388.043043,167.984902 386.39991,168.575154 384.85,168.16 C379.803333,166.82 376.19,163.78 374.01,159.04 C373.90023,158.801913 373.683232,158.630667 373.42615,158.579251 C373.169067,158.527834 372.902898,158.602446 372.71,158.78 L372.71,158.78 Z" id="Path" fill="#161526" fill-rule="nonzero"></path>
        <path d="M172.02,289.95 C153.613333,289.03 135.316667,288.186667 117.13,287.42 C116.816667,287.406667 116.59,287.333333 116.45,287.2 C116.263333,287.033333 116.163333,286.813333 116.15,286.54 C109.016667,266.26 105.936667,245.416667 106.91,224.01 C108.01,199.8 115.45,173.69 130.35,154.62 C138.68,143.95 152.07,134.23 165.45,141.77 C172.58,145.78 177.38,152.68 176.31,161.09 C176.05,163.13 174.996667,165.91 173.15,169.43 C168.636667,178.036667 165.483333,184.856667 163.69,189.89 C156.55,209.97 155.98,232.72 160.49,254.1 C163.016667,266.08 166.86,278.03 172.02,289.95 Z" id="Path" fill="#161526" fill-rule="nonzero"></path>
        <path d="M475.34,225.06 C494.76,236.206667 515.036667,241.676667 536.17,241.47 C544.94,241.38 553.6,239.83 562.25,238.5 C569.27,237.41 575.21,237.1 581.56,239.64 C580.706667,241.253333 579.516667,242.486667 577.99,243.34 C574.383333,242.453333 570.95,242.22 567.69,242.64 C560.41,243.58 552.896667,244.71 545.15,246.03 C544.554832,246.127301 544.115929,246.642169 544.11,247.25 C544.096667,249.403333 544.303333,251.736667 544.73,254.25 C546.543333,264.923333 550.236667,275.256667 555.81,285.25 C556.050673,285.680738 556.45592,285.995298 556.932894,286.121611 C557.409867,286.247924 557.917685,286.175164 558.34,285.92 L560.27,284.75 L567.85,280.41 C567.987627,280.338367 568.15629,280.36899 568.259952,280.484431 C568.363613,280.599872 568.375976,280.770847 568.29,280.9 L562.31,289.03 C547.863333,299.19 532.716667,305.886667 516.87,309.12 C492.72,314.06 468.09,313.47 444.13,306.29 C449.456667,292.436667 454.953333,278.71 460.62,265.11 C463.093333,259.176667 464.753333,254.906667 465.6,252.3 C467.96,245 469.63,239.18 472.02,232.73 C472.206667,232.216667 472.823333,230.96 473.87,228.96 C474.556667,227.64 475.046667,226.34 475.34,225.06 Z" id="Path" fill="#161526" fill-rule="nonzero"></path>
        <path d="M562.31,289.03 L568.29,280.9 C568.375976,280.770847 568.363613,280.599872 568.259952,280.484431 C568.15629,280.36899 567.987627,280.338367 567.85,280.41 L560.27,284.75 C562.436667,282.776667 564.586667,280.76 566.72,278.7 C568.22,277.26 571.35,278.18 573.34,277.44 C573.886667,277.233333 574.643333,276.703333 575.61,275.85 C579.86,272.08 584.29,266.75 583.48,260.73 C583.387861,260.073621 582.817177,259.593727 582.16,259.62 L578.75,259.75 C578.650521,259.750046 578.5529,259.736581 578.46,259.71 C575.36,258.61 574.15,255.43 576.7,253.2 C578.826667,251.346667 580.453333,249.853333 581.58,248.72 C582.17367,248.121739 582.32965,247.217855 581.97,246.46 C581.25,244.926667 579.923333,243.886667 577.99,243.34 C579.516667,242.486667 580.706667,241.253333 581.56,239.64 C584.79,240.85 588.28,244.1 587.84,247.89 C587.61,249.94 585.36,251.95 583.82,253.58 C583.7123,253.696412 583.666213,253.857016 583.695796,254.012823 C583.72538,254.168631 583.827126,254.301165 583.97,254.37 C588.06,256.3 588.8,260.38 588.3,264.51 C587.5,271.15 580.56,280.97 573.67,282.63 C571.283333,283.21 569.766667,283.65 569.12,283.95 C569.066864,283.976551 569.013232,284.010072 568.96,284.05 L562.31,289.03 Z" id="Path" fill="#1F2234" fill-rule="nonzero"></path>
        <path d="M577.99,243.34 C579.923333,243.886667 581.25,244.926667 581.97,246.46 C582.32965,247.217855 582.17367,248.121739 581.58,248.72 C580.453333,249.853333 578.826667,251.346667 576.7,253.2 C574.15,255.43 575.36,258.61 578.46,259.71 C578.5529,259.736581 578.650521,259.750046 578.75,259.75 L582.16,259.62 C582.817177,259.593727 583.387861,260.073621 583.48,260.73 C584.29,266.75 579.86,272.08 575.61,275.85 C574.643333,276.703333 573.886667,277.233333 573.34,277.44 C571.35,278.18 568.22,277.26 566.72,278.7 C564.586667,280.76 562.436667,282.776667 560.27,284.75 L558.34,285.92 C557.917685,286.175164 557.409867,286.247924 556.932894,286.121611 C556.45592,285.995298 556.050673,285.680738 555.81,285.25 C550.236667,275.256667 546.543333,264.923333 544.73,254.25 C544.303333,251.736667 544.096667,249.403333 544.11,247.25 C544.115929,246.642169 544.554832,246.127301 545.15,246.03 C552.896667,244.71 560.41,243.58 567.69,242.64 C570.95,242.22 574.383333,242.453333 577.99,243.34 Z" id="Path" fill="#FFFFFF" fill-rule="nonzero"></path>
        <ellipse id="Oval" fill="#9EA0AC" fill-rule="nonzero" transform="translate(632.11, 289.02) rotate(78.6) translate(-632.11, -289.02)" cx="632.11" cy="289.02" rx="6.71" ry="2.26"></ellipse>
        <path d="M116.15,286.54 C116.163333,286.813333 116.263333,287.033333 116.45,287.2 C116.59,287.333333 116.816667,287.406667 117.13,287.42 C135.316667,288.186667 153.613333,289.03 172.02,289.95 L182.76,290.44 C215.82,292.16 248.9,293.74 282,295.18 C292.87,295.66 302.12,304.45 305.16,314.81 C306.546667,319.55 309.936667,332.99 315.33,355.13 C320.61,376.84 325.63,395.31 330.99,416.96 C331.029611,417.131282 331.104599,417.291484 331.21,417.43 L331.79,418.21 C331.476667,418.35 331.326667,418.66 331.34,419.14 C331.339816,419.347413 331.410151,419.551385 331.54,419.72 C332.32,420.713333 332.846667,421.66 333.12,422.56 C332.96,424.94 333.476667,427.226667 334.67,429.42 C334.814721,429.69629 334.893446,430.000922 334.9,430.31 L334.92,431.32 C334.920312,431.570193 335.044115,431.802792 335.25,431.94 L340.97,435.69 C341.710065,436.168426 342.095165,437.040797 341.95,437.91 L339.93,450.39 C339.850526,450.873422 339.850526,451.366578 339.93,451.85 C340.45,455.143333 341.456667,459.086667 342.95,463.68 C343.043333,463.96 343.223333,464.233333 343.49,464.5 C343.39,464.513333 343.3,464.53 343.22,464.55 C343.142168,464.561647 343.072645,464.605504 343.027387,464.671504 C342.98213,464.737504 342.965026,464.819979 342.98,464.9 C344.84,473.773333 346.936667,482.726667 349.27,491.76 C349.67,493.32 350.146667,494.616667 350.7,495.65 C350.854417,495.951112 351.161672,496.143147 351.5,496.15 C367.593333,496.563333 385.176667,497.316667 404.25,498.41 C420.236667,499.33 435.726667,500.74 450.72,502.64 C461.03,503.96 469.8,505.72 478.88,508.33 C480.6,508.823333 483.203333,509.156667 486.69,509.33 C496.983333,509.843333 506.67,510.28 515.75,510.64 C517.243333,510.7 518.916667,511.21 520.77,512.17 C521.103333,512.343333 521.493333,512.923333 521.94,513.91 C516.69,514.47 511,514.92 506.28,515.64 C479.033333,519.74 452.513333,523.36 426.72,526.5 C406.13,529.01 381.6,532.88 364,535.57 C363.193333,535.69 361.7,535.483333 359.52,534.95 L352.29,534.15 C351.913942,534.105342 351.533591,534.221258 351.24,534.47 C347.72,537.5 341.95,537.43 337.49,537.21 C323.97,536.53 311.226667,535.913333 299.26,535.36 C283.66,534.64 270.763333,534.046667 260.57,533.58 C256.523333,533.4 230.946667,531.956667 183.84,529.25 C148.78,527.23 120.82,525.84 88.48,523.48 C88.2934462,523.469314 88.1118371,523.542003 87.9857001,523.677843 C87.8595631,523.813683 87.8023579,523.998179 87.83,524.18 C89.01,532.37 95.43,533.11 102.25,533.48 C121.63,534.513333 167.713333,537 240.5,540.94 C262.31,542.12 285.44,542.89 306.16,543.79 C327.633333,544.723333 345.746667,545.286667 360.5,545.48 C363,545.513333 366.033333,545.34 369.6,544.96 L497.31,527.84 C494.983333,530.68 491.233333,532.923333 486.06,534.57 C478.846667,536.876667 473.3,538.56 469.42,539.62 C454.233333,543.753333 435.596667,547.296667 413.51,550.25 C375.816667,555.29 341.233333,558.526667 309.76,559.96 C285.81,561.05 260.7,562.08 234.25,561.74 C228.43,561.666667 210.18,561.176667 179.5,560.27 C174.953333,560.136667 167.963333,559.77 158.53,559.17 C150.41,558.656667 143.423333,558.203333 137.57,557.81 C118.39,556.51 98.61,554.403333 78.23,551.49 C67.8633333,550.01 58.46,547.746667 50.02,544.7 C46.05,543.28 39.86,540.82 43.39,535.84 C46.38,531.63 57.15,528.97 62.32,527.87 C68.9733333,526.456667 76.4966667,525.276667 84.89,524.33 C85.6566667,524.243333 86.42,524.056667 87.18,523.77 C87.5287539,523.643969 87.742908,523.292328 87.6948428,522.924628 C87.6467775,522.556929 87.3494313,522.272151 86.98,522.24 C73.6733333,520.846667 65.0166667,513.853333 61.01,501.26 C58.61,493.73 57.06,485.22 54.82,478.75 C54.6650075,478.313268 54.2368559,478.031911 53.77,478.06 C53.1433333,478.093333 52.3666667,478.02 51.44,477.84 C41.98,476.02 34.2333333,474.34 28.2,472.8 C22.97,471.47 6.74,466.44 5.63,460.64 C4.19,453.09 16.27,448.75 22.02,446.98 C29.4,444.726667 36.7033333,443.106667 43.93,442.12 C44.2079175,442.078719 44.4079541,441.835196 44.39,441.56 C44.3633333,441.006667 44.2266667,440.15 43.98,438.99 C43.64,437.343333 42.8166667,436.59 41.51,436.73 C42.5566667,436.57 43.08,436.063333 43.08,435.21 C43.0733333,434.43 42.7633333,433.926667 42.15,433.7 C42.5033333,433.373333 42.6366667,433.033333 42.55,432.68 C39.91,422.433333 37.15,412.153333 34.27,401.84 C34.0166667,400.94 33.58,399.326667 32.96,397 C26.08,371.22 18.9966667,343.313333 11.71,313.28 C10.8766667,309.82 10.3533333,307.096667 10.14,305.11 C9.14,295.76 14.34,286.3 23.92,284.14 C25.7066667,283.74 28.28,283.61 31.64,283.75 C75.3333333,285.556667 102.953333,286.746667 114.5,287.32 C115.38,287.36 115.93,287.1 116.15,286.54 Z M199.3212,429.1805 C203.310125,423.588255 204.515317,416.355966 202.671646,409.074658 C200.827975,401.793351 196.086467,395.059471 189.4902,390.3544 C175.754213,380.556627 157.885283,382.054278 149.5788,393.6995 C145.589875,399.291745 144.384683,406.524034 146.228354,413.805342 C148.072025,421.086649 152.813533,427.820529 159.4098,432.5256 C173.145787,442.323373 191.014717,440.825722 199.3212,429.1805 L199.3212,429.1805 Z M375.96,519.68 C375.94,519.706667 375.356667,519.806667 374.21,519.98 C373.623333,520.066667 373.143333,520.206667 372.77,520.4 C369.236667,522.173333 364.83,523.48 359.55,524.32 C358.527891,524.488263 357.729543,525.290643 357.57,526.31 L357.05,529.47 C357.035698,529.574738 357.066878,529.680591 357.135673,529.760852 C357.204468,529.841112 357.304307,529.888115 357.41,529.89 C362.396667,529.923333 365.75,529.84 367.47,529.64 C391.023333,526.9 412.48,524.04 431.84,521.06 C432.090456,521.023258 432.289565,520.830844 432.334847,520.58179 C432.38013,520.332737 432.261494,520.082551 432.04,519.96 C431.606667,519.72 431.156667,519.603333 430.69,519.61 C419.29,519.74 408.75,518.96 398.42,518.51 C385.68,517.943333 371.6,517.246667 356.18,516.419956 C356.114347,516.418692 356.05156,516.446758 356.010328,516.495844 C355.969096,516.544929 355.954173,516.609376 355.97,516.67 L357.33,523.19 C357.363724,523.338216 357.503467,523.439847 357.66,523.43 C363.313333,522.85 368.736667,521.54 373.93,519.5 C374.023333,519.46 374.63,519.383333 375.75,519.27 C375.850233,519.262571 375.945169,519.315891 375.990989,519.405347 C376.036808,519.494804 376.0246,519.603002 375.96,519.68 Z" id="Shape" fill="#D3D7DD" fill-rule="nonzero"></path>
        <path d="M617.57,339.8 L617.38,339.74 C616.152373,339.372406 615.156257,338.468183 614.67,337.28 C613.536667,334.526667 613.2,332.13 613.66,330.09 C614.17,327.79 615.58,325.82 615.65,323.38 C615.736667,320.793333 615.323333,318.613333 614.41,316.84 C611.396667,310.96 609.66,307.533333 609.2,306.56 C605.95,299.77 606.78,291.25 613,286.79 C614.153333,285.963333 615.096667,285.973333 615.83,286.82 C616.526765,287.625257 616.609486,288.917281 616.04,290.1 C615.846667,290.5 614.963333,291.993333 613.39,294.58 C611.77,297.25 613.98,302.49 615.75,305 C621.81,313.59 627.08,318.68 625.55,327.25 C624.9,330.84 622.76,331.98 619.65,333.29 C619.239387,333.46672 618.93065,333.819563 618.81,334.25 C618.483333,335.43 618.553333,336.793333 619.02,338.34 C619.143846,338.751192 619.032476,339.197185 618.729863,339.501885 C618.42725,339.806585 617.982033,339.921017 617.57,339.8 L617.57,339.8 Z" id="Path" fill="#9EA0AC" fill-rule="nonzero"></path>
        <path d="M655.11,313.9 C676.33,310.2 667.19,347.27 652.75,339.32 C646.25,335.74 642.55,323.18 648.52,317.55 C650.686667,315.51 652.883333,314.293333 655.11,313.9 Z M663.26,321.78 C662.56,318.74 659.62,317.17 656.88,317.66 C654.93,318.01 651,322.44 650.06,323.45 C649.378991,324.168469 649.068845,325.161673 649.22,326.14 C649.593333,328.593333 650.396667,330.83 651.63,332.85 C654.07,336.85 658.83,335.57 661.04,332.29 C663.346667,328.863333 664.086667,325.36 663.26,321.78 Z" id="Shape" fill="#9EA0AC" fill-rule="nonzero"></path>
        <ellipse id="Oval" fill="#9EA0AC" fill-rule="nonzero" transform="translate(596.45, 320.37) rotate(93.1) translate(-596.45, -320.37)" cx="596.45" cy="320.37" rx="5.82" ry="2.35"></ellipse>
        <path d="M656.88,317.66 C659.62,317.17 662.56,318.74 663.26,321.78 C664.086667,325.36 663.346667,328.863333 661.04,332.29 C658.83,335.57 654.07,336.85 651.63,332.85 C650.396667,330.83 649.593333,328.593333 649.22,326.14 C649.068845,325.161673 649.378991,324.168469 650.06,323.45 C651,322.44 654.93,318.01 656.88,317.66 Z" id="Path" fill="#FFFFFF" fill-rule="nonzero"></path>
        <path d="M543.8,333.12 C543.726861,333.286113 543.763226,333.480091 543.891567,333.608433 C544.019909,333.736774 544.213887,333.773139 544.38,333.7 L547.35,332.43 C547.632472,332.301513 547.957959,332.287205 548.26,332.39 C550.353333,333.076667 551.48,334.586667 551.64,336.92 C551.853333,340.16 550.666667,342.98 548.08,345.38 C544,349.15 539.55,347.48 537.63,342.6 C536.41,339.486667 536.33,336.573333 537.39,333.86 C537.521783,333.523743 537.722929,333.220319 537.98,332.97 C541.646667,329.49 543.876667,327.536667 544.67,327.11 C548.97,324.776667 552.51,325.81 555.29,330.21 C555.959791,331.268084 555.986748,332.612068 555.36,333.7 L555.12,334.11 C554.916641,334.462201 554.54238,334.680799 554.135706,334.684907 C553.729033,334.689015 553.350432,334.478021 553.14,334.13 C552.08,332.363333 550.79,330.906667 549.27,329.76 C548.562226,329.221126 547.578745,329.225224 546.87,329.77 C545.25,331.03 544.226667,332.146667 543.8,333.12 Z M545.8,336.38 L542.33,337.11 C541.749668,337.226078 541.359811,337.773631 541.44,338.36 C541.606667,339.606667 541.986667,340.71 542.58,341.67 C542.769746,341.979241 543.075978,342.19909 543.429658,342.279985 C543.783337,342.36088 544.154692,342.29601 544.46,342.1 C546.2,340.966667 547.1,339.44 547.16,337.52 C547.170338,337.174105 547.021617,336.842543 546.756415,336.620242 C546.491213,336.39794 546.138773,336.309411 545.8,336.38 Z" id="Shape" fill="#9EA0AC" fill-rule="nonzero"></path>
        <path d="M545.8,336.38 C546.138773,336.309411 546.491213,336.39794 546.756415,336.620242 C547.021617,336.842543 547.170338,337.174105 547.16,337.52 C547.1,339.44 546.2,340.966667 544.46,342.1 C544.154692,342.29601 543.783337,342.36088 543.429658,342.279985 C543.075978,342.19909 542.769746,341.979241 542.58,341.67 C541.986667,340.71 541.606667,339.606667 541.44,338.36 C541.359811,337.773631 541.749668,337.226078 542.33,337.11 L545.8,336.38 Z" id="Path" fill="#FFFFFF" fill-rule="nonzero"></path>
        <path d="M638.42,432.49 C638.86,433.076667 639.133333,433.633333 639.24,434.16 C639.14,434.186667 639.09,434.286667 639.09,434.46 C639.083595,434.576092 639.119144,434.689849 639.19,434.78 C643.483333,440.413333 646.636667,446.613333 648.65,453.38 C648.734648,453.660538 648.987257,453.857012 649.28,453.87 C658.426667,454.303333 667.413333,455.173333 676.24,456.48 C682.753333,457.446667 688.8,459.31 694.38,462.07 C702.04,465.87 697.2,472.43 691.9,474.93 C685.993333,477.716667 678.32,479.873333 668.88,481.4 C643.15,485.55 617.86,486.31 589.99,485.1 C579.51,484.64 535.43,481.57 530.85,471.89 C524.07,457.56 590.32,454.93 599,454.43 C600.54,454.343333 602.016667,454.136667 603.43,453.81 C603.756692,453.730797 604.013612,453.481545 604.1,453.16 C605.766667,447.02 605.943333,440.94 604.63,434.92 C604.55966,434.593212 604.365534,434.309212 604.09,434.13 L603.76,433.92 C604.146667,433.386667 603.796667,432.483333 602.71,431.21 C603.483333,429.803333 602.333333,428.6 599.26,427.6 C596.706667,426.773333 594.13,426.023333 591.53,425.35 C585.89,423.876667 581.323333,422.086667 577.83,419.98 C575.76,418.74 574.18,416.04 572.52,413.6 C564.366667,401.64 559.426667,388.61 557.7,374.51 C556.79,367.1 557.65,358.03 563.34,352.56 C571.31,344.91 582.93,342.34 593.76,341.45 C603.973333,340.616667 614.183333,341.416667 624.39,343.85 C633.04,345.91 644.83,351.79 646.79,361.24 C647.456667,364.426667 647.62,367.79 647.28,371.33 C647.261599,371.528625 647.343113,371.723408 647.497499,371.849724 C647.651885,371.976039 647.858952,372.017369 648.05,371.96 C652.843333,370.486667 657.42,370.21 661.78,371.13 C669,372.66 672.75,380.97 670.81,388.15 C668.223333,397.69 662.703333,405.106667 654.25,410.4 C647.14,414.86 636.28,416.38 628.15,416.57 C627.816412,416.576805 627.501135,416.709365 627.27,416.94 L623.96,420.26 C623.76818,420.451235 623.676372,420.720901 623.711656,420.989454 C623.746941,421.258007 623.905292,421.494805 624.14,421.63 C628.746667,424.263333 632.84,427.516667 636.42,431.39 C636.6903,431.67995 637.017554,431.908346 637.38,432.06 L638.42,432.49 Z M619.1,418.23 C621.526667,414.663333 624.71,410.063333 628.65,404.43 C631.103333,400.91 633.993333,395.203333 637.32,387.31 C639.846667,381.31 641.276667,375.66 641.61,370.36 C641.85,366.593333 641.923333,364.35 641.83,363.63 C641.25,359.1 636.56,355.13 632.86,353.34 C620.3,347.25 606.28,346.44 592.01,347.55 C580.11,348.47 563.38,353.93 563.18,368.02 C563.066667,376.14 564.4,383.903333 567.18,391.31 C570.66,400.57 574.49,408.92 580.56,416.01 C580.991467,416.515282 581.664277,416.742115 582.31,416.6 C593.73,414.09 607.11,415.63 618.44,418.48 C618.690769,418.545314 618.955434,418.445062 619.1,418.23 Z M631.69,410.27 C636.01,410.13 640.806667,409.27 646.08,407.69 C653.72,405.41 659.733333,400.21 664.12,392.09 C667.21,386.38 666.52,378.51 659.32,376.55 C655.98,375.65 652.28,376.68 649.02,377.79 C647.226667,378.403333 646.03,379.646667 645.43,381.52 C642.923333,389.32 639.566667,396.69 635.36,403.63 C634.166667,405.596667 632.796667,407.506667 631.25,409.36 C631.105849,409.526052 631.074457,409.762004 631.170176,409.95997 C631.265896,410.157935 631.470329,410.279862 631.69,410.27 Z" id="Shape" fill="#A46936" fill-rule="nonzero"></path>
        <path d="M619.1,418.23 C618.955434,418.445062 618.690769,418.545314 618.44,418.48 C607.11,415.63 593.73,414.09 582.31,416.6 C581.664277,416.742115 580.991467,416.515282 580.56,416.01 C574.49,408.92 570.66,400.57 567.18,391.31 C564.4,383.903333 563.066667,376.14 563.18,368.02 C563.38,353.93 580.11,348.47 592.01,347.55 C606.28,346.44 620.3,347.25 632.86,353.34 C636.56,355.13 641.25,359.1 641.83,363.63 C641.923333,364.35 641.85,366.593333 641.61,370.36 C641.276667,375.66 639.846667,381.31 637.32,387.31 C633.993333,395.203333 631.103333,400.91 628.65,404.43 C624.71,410.063333 621.526667,414.663333 619.1,418.23 Z M622.8,361.36 C622.686667,361.1 622.423333,360.89 622.01,360.73 C619.856667,359.89 617.53,359.44 615.03,359.38 C610.11,359.25 605.13,359.41 600.26,358.79 C598.266667,358.536667 596.173333,358.46 593.98,358.56 C593.252403,358.596354 592.610473,359.04765 592.33,359.72 L592.31,359.77 C592.188896,360.047404 592.21037,360.36639 592.367561,360.625059 C592.524752,360.883728 592.797994,361.049717 593.1,361.07 L608.96,362.18 C609.079586,362.186674 609.197058,362.179961 609.31,362.16 C613.923333,361.446667 618.246667,361.406667 622.28,362.04 C622.455868,362.065575 622.631797,361.993922 622.739751,361.852751 C622.847706,361.71158 622.870761,361.523023 622.8,361.36 Z M573.96,374.46 C575.34,375.14 577.023333,375.663333 579.01,376.03 C593.236667,378.65 607.94,378.86 623.12,376.66 C623.408531,376.617469 623.665945,376.45574 623.829474,376.21425 C623.993003,375.97276 624.047617,375.673702 623.98,375.39 L623.97,375.34 C623.814218,374.711191 623.26314,374.262164 622.62,374.24 C616.78,374.026667 610.54,373.88 603.9,373.8 C594.21,373.68 585.23,372.71 576.4,371.37 C575.233333,371.196667 574.373333,371.316667 573.82,371.73 C573.363545,372.072785 573.102965,372.620323 573.131497,373.176699 C573.160029,373.733075 573.473596,374.218771 573.96,374.46 L573.96,374.46 Z" id="Shape" fill="#FFFFFF" fill-rule="nonzero"></path>
        <path d="M533.2334,361.878 C533.136917,362.795901 532.535151,363.622682 531.560486,364.176459 C530.585821,364.730236 529.318096,364.965646 528.0362,364.8309 C525.366832,364.550329 523.365736,362.773403 523.5666,360.862 C523.663083,359.944099 524.264849,359.117318 525.239514,358.563541 C526.214179,358.009764 527.481904,357.774354 528.7638,357.9091 C531.433168,358.189671 533.434264,359.966597 533.2334,361.878 Z M531.4264,361.6416 C531.557036,360.561507 530.214048,359.510602 528.4267,359.2943 C527.568345,359.190421 526.720207,359.296852 526.068872,359.590179 C525.417538,359.883506 525.016361,360.339699 524.9536,360.8584 C524.822964,361.938493 526.165952,362.989398 527.9533,363.2057 C528.811655,363.309579 529.659793,363.203148 530.311128,362.909821 C530.962462,362.616494 531.363639,362.160301 531.4264,361.6416 Z" id="Shape" fill="#9EA0AC" fill-rule="nonzero"></path>
        <path d="M622.8,361.36 C622.870761,361.523023 622.847706,361.71158 622.739751,361.852751 C622.631797,361.993922 622.455868,362.065575 622.28,362.04 C618.246667,361.406667 613.923333,361.446667 609.31,362.16 C609.197058,362.179961 609.079586,362.186674 608.96,362.18 L593.1,361.07 C592.797994,361.049717 592.524752,360.883728 592.367561,360.625059 C592.21037,360.36639 592.188896,360.047404 592.31,359.77 L592.33,359.72 C592.610473,359.04765 593.252403,358.596354 593.98,358.56 C596.173333,358.46 598.266667,358.536667 600.26,358.79 C605.13,359.41 610.11,359.25 615.03,359.38 C617.53,359.44 619.856667,359.89 622.01,360.73 C622.423333,360.89 622.686667,361.1 622.8,361.36 Z" id="Path" fill="#DCCCBC" fill-rule="nonzero"></path>
        <ellipse id="Oval" fill="#FFFFFF" fill-rule="nonzero" transform="translate(528.19, 361.25) rotate(6.9) translate(-528.19, -361.25)" cx="528.19" cy="361.25" rx="3.26" ry="1.97"></ellipse>
        <path d="M388.68,419.72 C378.306667,425.913333 367.09,429.903333 355.03,431.69 C351.65,432.196667 349.383333,432.233333 348.23,431.8 C342.71,429.74 337.673333,426.66 333.12,422.56 C332.846667,421.66 332.32,420.713333 331.54,419.72 C331.410151,419.551385 331.339184,419.347413 331.34,419.14 C331.326667,418.66 331.476667,418.35 331.79,418.21 C335.11,418.37 339.52,414.56 341.59,411.94 C349.59,401.813333 355.48,393.753333 359.26,387.76 C365.273333,378.233333 370.573333,369.916667 375.16,362.81 C375.202097,362.743553 375.268465,362.696442 375.343885,362.679473 C375.419305,362.662503 375.497306,362.677131 375.56,362.72 C386.87,370.3 398.39,378.61 406.97,389.2 C411.26,394.49 412.94,400.58 407.64,405.91 C402.25,411.33 395.22,415.3 388.68,419.72 Z" id="Path" fill="#FFFFFF" fill-rule="nonzero"></path>
        <path d="M573.96,374.46 C573.473596,374.218771 573.160029,373.733075 573.131497,373.176699 C573.102965,372.620323 573.363545,372.072785 573.82,371.73 C574.373333,371.316667 575.233333,371.196667 576.4,371.37 C585.23,372.71 594.21,373.68 603.9,373.8 C610.54,373.88 616.78,374.026667 622.62,374.24 C623.26314,374.262164 623.814218,374.711191 623.97,375.34 L623.98,375.39 C624.047617,375.673702 623.993003,375.97276 623.829474,376.21425 C623.665945,376.45574 623.408531,376.617469 623.12,376.66 C607.94,378.86 593.236667,378.65 579.01,376.03 C577.023333,375.663333 575.34,375.14 573.96,374.46 Z" id="Path" fill="#A46936" fill-rule="nonzero"></path>
        <path d="M631.69,410.27 C631.470329,410.279862 631.265896,410.157935 631.170176,409.95997 C631.074457,409.762004 631.105849,409.526052 631.25,409.36 C632.796667,407.506667 634.166667,405.596667 635.36,403.63 C639.566667,396.69 642.923333,389.32 645.43,381.52 C646.03,379.646667 647.226667,378.403333 649.02,377.79 C652.28,376.68 655.98,375.65 659.32,376.55 C666.52,378.51 667.21,386.38 664.12,392.09 C659.733333,400.21 653.72,405.41 646.08,407.69 C640.806667,409.27 636.01,410.13 631.69,410.27 Z" id="Path" fill="#FFFFFF" fill-rule="nonzero"></path>
        <ellipse id="Oval" fill="#FFFFFF" fill-rule="nonzero" transform="translate(174.45, 411.44) rotate(35.5) translate(-174.45, -411.44)" cx="174.45" cy="411.44" rx="30.55" ry="25.9"></ellipse>
        <path d="M540.98,391.68 C544.2,390.78 546.1,392.15 548.24,394.32 C548.622193,394.708843 549.078692,395.01204 549.58,395.21 C553.53,396.77 556.97,398.04 557.87,402.77 C559.22,409.81 557.95,418.08 552.18,423.21 C548.03,426.92 541.73,425.95 537.85,422.85 C532.62,418.67 531.23,412.86 530.96,406.39 C530.66,399.08 533.45,393.79 540.98,391.68 Z M540.03,399.29 C537.276667,400.343333 535.926667,402.426667 535.98,405.54 C536.12,412.83 538.3,420.77 547.45,419.82 C549.63,419.6 550.72,418.38 551.76,416.53 C554.01,412.54 555.65,405.58 552.18,401.87 C551.782896,401.446827 551.265989,401.15694 550.7,401.04 L541.82,399.15 C541.218983,399.025736 540.598025,399.074303 540.03,399.29 Z" id="Shape" fill="#A46936" fill-rule="nonzero"></path>
        <path d="M541.82,399.15 L550.7,401.04 C551.265989,401.15694 551.782896,401.446827 552.18,401.87 C555.65,405.58 554.01,412.54 551.76,416.53 C550.72,418.38 549.63,419.6 547.45,419.82 C538.3,420.77 536.12,412.83 535.98,405.54 C535.926667,402.426667 537.276667,400.343333 540.03,399.29 C540.598025,399.074303 541.218983,399.025736 541.82,399.15 L541.82,399.15 Z" id="Path" fill="#FFFFFF" fill-rule="nonzero"></path>
        <path d="M388.68,419.72 C393.59,422.3 391.89,427.7 387.88,430.29 L387.34,426.87 C387.321635,426.760462 387.253737,426.665534 387.156009,426.612761 C387.058281,426.559988 386.941665,426.555279 386.84,426.6 C379.053333,430.166667 371,433.1 362.68,435.4 C362.166667,435.54 361.406667,435.666667 360.4,435.78 C359.760247,435.847705 359.280736,436.396962 359.3,437.04 L359.66,452.92 C359.662631,453.084441 359.730489,453.2411 359.848642,453.355501 C359.966794,453.469903 360.12556,453.532674 360.29,453.53 C363.32,453.46 367.87,452.46 371.55,452.93 C372.483333,453.043333 374.326667,453.626667 377.08,454.68 C379.18,455.48 381.31,456.173333 383.47,456.76 C382.763333,458.56 381.586667,460.02 379.94,461.14 C375.53,459.64 371.82,457.41 366.75,457.85 C363.023333,458.183333 360.126667,458.403333 358.06,458.51 C357.430941,458.542322 356.839939,458.814541 356.41,459.27 C353.35,462.55 348.2,465.4 343.49,464.5 C343.223333,464.233333 343.043333,463.96 342.95,463.68 C341.456667,459.086667 340.45,455.143333 339.93,451.85 C339.850526,451.366578 339.850526,450.873422 339.93,450.39 L341.95,437.91 C342.095165,437.040797 341.710065,436.168426 340.97,435.69 L335.25,431.94 C335.044115,431.802792 334.920312,431.570193 334.92,431.32 L334.9,430.31 C334.893446,430.000922 334.814721,429.69629 334.67,429.42 C333.476667,427.226667 332.96,424.94 333.12,422.56 C337.673333,426.66 342.71,429.74 348.23,431.8 C349.383333,432.233333 351.65,432.196667 355.03,431.69 C367.09,429.903333 378.306667,425.913333 388.68,419.72 Z" id="Path" fill="#161526" fill-rule="nonzero"></path>
        <path d="M387.88,430.29 C388.666667,432.083333 390.36,433.333333 392.96,434.04 C401.33,436.32 407.88,437.35 412.72,443 C413.93,444.41 415.77,447.01 414.69,448.75 C414.17,449.603333 413.42,450.083333 412.44,450.19 C412.188503,450.216425 411.931541,450.19952 411.68,450.14 C407.8,449.16 405.18,447.83 400.63,450.04 C400.31915,450.192176 400.03805,450.398768 399.8,450.65 C397.353333,453.17 395.806667,454.6 395.16,454.94 C391.48,456.833333 387.583333,457.44 383.47,456.76 C381.31,456.173333 379.18,455.48 377.08,454.68 C374.326667,453.626667 372.483333,453.043333 371.55,452.93 C367.87,452.46 363.32,453.46 360.29,453.53 C360.12556,453.532674 359.966794,453.469903 359.848642,453.355501 C359.730489,453.2411 359.662631,453.084441 359.66,452.92 L359.3,437.04 C359.280736,436.396962 359.760247,435.847705 360.4,435.78 C361.406667,435.666667 362.166667,435.54 362.68,435.4 C371,433.1 379.053333,430.166667 386.84,426.6 C386.941665,426.555279 387.058281,426.559988 387.156009,426.612761 C387.253737,426.665534 387.321635,426.760462 387.34,426.87 L387.88,430.29 Z" id="Path" fill="#FFFFFF" fill-rule="nonzero"></path>
        <path d="M602.71,431.21 C603.796667,432.483333 604.146667,433.386667 603.76,433.92 L438.46,432.47 C438.526667,431.716667 438.173333,430.926667 437.4,430.1 C442.213333,429.906667 446.996667,429.823333 451.75,429.85 C478.31,429.99 504.866667,430.173333 531.42,430.4 C550.14,430.56 578.9,431.28 602.71,431.21 Z" id="Path" fill="#5A5963" fill-rule="nonzero"></path>
        <path d="M639.24,434.16 C639.133333,433.633333 638.86,433.076667 638.42,432.49 L639.21,432.03 C639.373814,431.938257 639.559739,431.89 639.75,431.89 L818.68,436.51 C819.096482,436.520403 819.491724,436.696968 819.77869,437.000815 C820.065657,437.304662 820.220816,437.710874 820.21053,438.13 L820.21053,438.41 C820.202093,438.692908 820.082446,438.960947 819.877708,439.154416 C819.672969,439.347884 819.400144,439.450713 819.12,439.44 C780,438.266667 744.706667,437.37 713.24,436.75 C689.65,436.29 664.37,435.52 641.27,435.15 C640.423333,435.136667 639.746667,434.806667 639.24,434.16 Z" id="Path" fill="#5A5963" fill-rule="nonzero"></path>
        <path d="M42.15,433.7 C42.7633333,433.926667 43.0733333,434.43 43.08,435.21 C43.08,436.063333 42.5566667,436.57 41.51,436.73 L2.5,438.2 C2.0848439,438.216777 1.68132679,438.060602 1.38563817,437.768704 C1.08994955,437.476806 0.928581294,437.075338 0.94,436.66 L0.95,436.23 C0.965509076,435.621834 1.45199798,435.130963 2.06,435.11 L42.15,433.7 Z" id="Path" fill="#5A5963" fill-rule="nonzero"></path>
        <path d="M521.94,513.91 C521.286667,517.956667 520.23,520.92 518.77,522.8 C516.95,525.16 513.61,525.54 510.54,525.98 C505.893333,526.64 501.483333,527.26 497.31,527.84 L369.6,544.96 C365.573333,542.84 361.66,539.766667 357.86,535.74 C357.747304,535.622921 357.712261,535.451338 357.770023,535.299445 C357.827784,535.147553 357.967986,535.042611 358.13,535.03 L359.52,534.95 C361.7,535.483333 363.193333,535.69 364,535.57 C381.6,532.88 406.13,529.01 426.72,526.5 C452.513333,523.36 479.033333,519.74 506.28,515.64 C511,514.92 516.69,514.47 521.94,513.91 Z" id="Path" fill="#828491" fill-rule="nonzero"></path>
        <path d="M375.75,519.27 C374.63,519.383333 374.023333,519.46 373.93,519.5 C368.736667,521.54 363.313333,522.85 357.66,523.43 C357.503467,523.439847 357.363724,523.338216 357.33,523.19 L355.97,516.67 C355.954173,516.609376 355.969096,516.544929 356.010328,516.495844 C356.05156,516.446758 356.114347,516.418692 356.18,516.419956 C371.6,517.246667 385.68,517.943333 398.42,518.51 C408.75,518.96 419.29,519.74 430.69,519.61 C431.156667,519.603333 431.606667,519.72 432.04,519.96 C432.261494,520.082551 432.38013,520.332737 432.334847,520.58179 C432.289565,520.830844 432.090456,521.023258 431.84,521.06 C412.48,524.04 391.023333,526.9 367.47,529.64 C365.75,529.84 362.396667,529.923333 357.41,529.89 C357.304307,529.888115 357.204468,529.841112 357.135673,529.760852 C357.066878,529.680591 357.035698,529.574738 357.05,529.47 L357.57,526.31 C357.729543,525.290643 358.527891,524.488263 359.55,524.32 C364.83,523.48 369.236667,522.173333 372.77,520.4 C373.143333,520.206667 373.623333,520.066667 374.21,519.98 C375.356667,519.806667 375.94,519.706667 375.96,519.68 C376.0246,519.603002 376.036808,519.494804 375.990989,519.405347 C375.945169,519.315891 375.850233,519.262571 375.75,519.27 Z M394.169869,521.0438 C394.154542,520.904045 393.093698,520.885522 391.220573,520.992307 C389.347447,521.099092 386.815499,521.322436 384.1818,521.6132 C378.69812,522.218604 374.278633,522.945224 374.310131,523.2362 C374.325458,523.375955 375.386302,523.394478 377.259427,523.287693 C379.132553,523.180908 381.664501,522.957564 384.2982,522.6668 C389.78188,522.061396 394.201367,521.334776 394.169869,521.0438 L394.169869,521.0438 Z M398.039961,522.72 C398.039961,522.926667 398.9,523.013333 400.62,522.98 C402.346667,522.946667 403.206667,522.826667 403.200038,522.62 C403.193333,522.413333 402.33,522.326667 400.61,522.36 C398.89,522.393333 398.033333,522.513333 398.039961,522.72 Z" id="Shape" fill="#828491" fill-rule="nonzero"></path>
        <ellipse id="Oval" fill="#DCCCBC" fill-rule="nonzero" transform="translate(384.24, 522.14) rotate(-6.3) translate(-384.24, -522.14)" cx="384.24" cy="522.14" rx="9.99" ry="1"></ellipse>
        <path d="M400.61,522.36 C402.33,522.326667 403.193333,522.413333 403.200038,522.62 C403.206667,522.826667 402.346667,522.946667 400.62,522.98 C398.9,523.013333 398.039961,522.926667 398.039961,522.72 C398.033333,522.513333 398.89,522.393333 400.61,522.36 Z" id="Path" fill="#D3D7DD" fill-rule="nonzero"></path>
        <path d="M359.52,534.95 L358.13,535.03 C357.967986,535.042611 357.827784,535.147553 357.770023,535.299445 C357.712261,535.451338 357.747304,535.622921 357.86,535.74 C361.66,539.766667 365.573333,542.84 369.6,544.96 C366.033333,545.34 363,545.513333 360.5,545.48 C345.746667,545.286667 327.633333,544.723333 306.16,543.79 C285.44,542.89 262.31,542.12 240.5,540.94 C167.713333,537 121.63,534.513333 102.25,533.48 C95.43,533.11 89.01,532.37 87.83,524.18 C87.8023579,523.998179 87.8595631,523.813683 87.9857001,523.677843 C88.1118371,523.542003 88.2934462,523.469314 88.48,523.48 C120.82,525.84 148.78,527.23 183.84,529.25 C230.946667,531.956667 256.523333,533.4 260.57,533.58 C270.763333,534.046667 283.66,534.64 299.26,535.36 C311.226667,535.913333 323.97,536.53 337.49,537.21 C341.95,537.43 347.72,537.5 351.24,534.47 C351.533591,534.221258 351.913942,534.105342 352.29,534.15 L359.52,534.95 Z" id="Path" fill="#9EA0AC" fill-rule="nonzero"></path>
    </g>
</svg>